<?xml version="1.0" standalone="no"?>
<!DOCTYPE svg PUBLIC "-//W3C//DTD SVG 20010904//EN"
 "http://www.w3.org/TR/2001/REC-SVG-20010904/DTD/svg10.dtd">
<svg version="1.0" xmlns="http://www.w3.org/2000/svg"
 width="300.000000pt" height="173.000000pt" viewBox="0 0 300.000000 173.000000"
 preserveAspectRatio="xMidYMid meet">
<metadata>
Created by potrace 1.10, written by Peter Selinger 2001-2011
</metadata>
<g transform="translate(0.000000,173.000000) scale(0.100000,-0.100000)"
fill="#000000" stroke="none">
<path d="M351 1561 c-18 -18 -19 -47 -23 -703 -2 -375 -2 -691 0 -701 4 -16
45 -17 683 -17 641 0 678 -1 673 -17 -5 -17 -5 -17 9 -1 13 16 52 18 498 20
l484 3 3 693 2 693 -24 24 -25 25 -1131 0 c-1097 0 -1131 -1 -1149 -19z m1816
-34 c-3 -9 -172 -12 -788 -14 -993 -2 -983 -2 -978 -7 2 -3 55 -6 117 -7 62
-1 115 -6 118 -11 7 -11 72 -10 79 2 7 12 1441 14 1449 2 2 -4 -4 -27 -15 -51
-26 -58 -26 -154 1 -205 22 -45 18 -60 -15 -52 -13 3 -27 2 -30 -4 -3 -5 3
-10 15 -10 13 0 20 -5 17 -12 -2 -9 -23 -12 -65 -10 l-62 2 0 -35 c0 -21 5
-35 13 -35 8 0 7 -4 -3 -10 -13 -9 -13 -10 0 -10 13 0 13 -1 0 -10 -12 -8 -10
-10 9 -10 18 0 22 4 18 20 -3 11 -1 23 4 26 5 3 9 0 9 -5 0 -6 14 -11 30 -11
17 0 30 4 30 10 0 5 7 7 15 4 9 -4 15 0 16 10 3 29 4 34 12 42 4 4 7 18 7 31
0 20 5 23 41 23 24 0 38 -4 34 -10 -4 -6 7 -10 25 -10 21 0 30 -4 27 -12 -2
-9 -24 -13 -60 -13 -30 0 -58 -3 -61 -6 -13 -12 56 -19 97 -9 26 5 58 5 82 0
24 -5 56 -5 81 0 25 6 54 6 73 0 36 -10 94 -3 85 11 -3 5 -17 8 -32 7 -62 -4
-82 1 -82 22 0 17 7 20 45 20 25 0 45 -4 45 -10 0 -5 7 -10 15 -10 20 0 19 16
-1 24 -25 10 -99 7 -110 -4 -6 -6 -23 -6 -47 1 -21 6 -52 8 -70 6 -30 -4 -30
-4 6 -5 23 -1 36 -6 32 -12 -4 -6 8 -10 29 -10 26 0 34 -4 30 -13 -5 -13 -27
-15 -113 -9 -15 1 -21 7 -18 16 4 9 -3 16 -20 21 l-26 6 27 28 c20 21 26 37
26 72 0 24 4 49 8 55 8 13 102 28 152 24 63 -5 85 -4 108 4 l22 7 -1 -188 c0
-103 -3 -182 -6 -175 -3 7 -25 12 -57 12 -45 0 -55 3 -64 23 -7 14 -11 17 -12
7 0 -8 -10 -26 -21 -39 -15 -18 -23 -21 -31 -13 -16 16 -47 15 -78 -1 -30 -16
-50 -12 -50 11 0 15 -2 15 -10 2 -8 -13 -10 -12 -10 3 0 14 -9 17 -50 17 -66
0 -64 18 3 22 l52 3 -49 5 c-54 6 -81 -6 -70 -33 3 -9 10 -14 15 -11 5 3 9 0
9 -5 0 -6 -6 -11 -14 -11 -25 0 -45 -95 -27 -129 8 -14 7 -29 -3 -53 -8 -18
-14 -67 -15 -109 -1 -67 2 -78 23 -98 16 -15 38 -23 70 -25 57 -3 84 10 106
49 14 26 23 30 65 33 57 4 73 14 92 60 12 29 17 32 58 32 24 0 47 5 50 10 21
33 25 -11 25 -255 0 -181 3 -265 11 -265 6 0 9 -12 7 -28 -3 -27 -3 -27 -98
-32 -52 -3 -562 -4 -1132 -2 l-1038 2 0 36 c0 21 4 33 10 29 7 -4 10 202 10
609 0 404 -3 616 -10 616 -14 0 -13 23 1 37 18 18 1792 18 1786 0z m113 -37
c0 -5 -22 -10 -50 -10 -27 0 -50 5 -50 10 0 6 23 10 50 10 28 0 50 -4 50 -10z
m170 -46 l0 -44 -59 0 -59 0 -4 46 c-2 25 -2 46 -1 47 0 1 29 0 62 -1 l61 -4
0 -44z m160 4 l0 -48 -65 0 -65 0 0 48 0 47 65 0 65 0 0 -47z m-333 8 c4 -3
-17 -6 -46 -6 -29 0 -50 4 -47 8 6 9 84 8 93 -2z m17 -124 l1 -92 -62 0 -63 0
0 95 0 96 61 -3 61 -3 2 -93z m-159 -222 c-3 -5 -24 -10 -46 -10 -21 0 -39 5
-39 10 0 6 21 10 46 10 27 0 43 -4 39 -10z m145 -129 c0 -5 -70 -6 -98 -2 -2
1 -1 4 2 9 5 9 96 3 96 -7z m330 -78 l0 -93 -65 0 -65 0 0 88 c0 49 2 91 5 94
3 2 32 5 65 5 l60 0 0 -94z m-170 77 c0 -5 -22 -10 -50 -10 -27 0 -50 5 -50
10 0 6 23 10 50 10 28 0 50 -4 50 -10z m-86 -25 c18 -14 18 -15 2 -15 -11 0
-15 -4 -10 -12 5 -9 2 -9 -9 1 -17 14 -23 41 -9 41 4 0 16 -7 26 -15z m-74 -2
c0 -9 -88 -8 -97 1 -3 3 17 6 45 6 29 0 52 -3 52 -7z m0 -53 c0 -29 -1 -30
-50 -30 -49 0 -50 1 -50 30 0 29 1 30 50 30 49 0 50 -1 50 -30z m170 -95 l0
-95 -60 0 -60 0 0 95 0 95 60 0 60 0 0 -95z m-174 42 c4 -4 -16 -7 -45 -7 -30
0 -50 4 -46 9 6 11 80 9 91 -2z m17 -125 l2 -92 -62 0 -63 0 0 95 0 96 60 -3
61 -3 2 -93z m-216 -549 c-318 -2 -836 -2 -1150 0 -315 1 -54 2 578 2 633 0
890 -1 572 -2z"/>
<path d="M606 1455 c-3 -8 -1 -15 5 -15 6 0 7 -5 4 -10 -4 -6 -10 -8 -15 -5
-10 6 -22 -39 -14 -59 3 -8 14 -18 25 -21 10 -4 19 -10 19 -14 0 -13 -26 -32
-33 -24 -4 3 -7 -8 -7 -26 0 -18 4 -30 9 -26 5 3 12 1 16 -5 8 -14 58 -13 90
2 31 14 32 40 3 53 -28 12 -29 24 -3 39 40 22 45 46 15 76 -11 11 -15 20 -9
20 6 0 3 8 -7 17 -13 13 -19 14 -22 5 -4 -14 -42 -16 -42 -2 0 16 -27 12 -34
-5z m101 -65 c-1 -17 -8 -20 -49 -20 -41 0 -48 3 -48 20 0 17 7 20 49 20 44 0
50 -2 48 -20z m3 -110 c0 -5 -22 -10 -50 -10 -27 0 -50 5 -50 10 0 6 23 10 50
10 28 0 50 -4 50 -10z"/>
<path d="M605 1200 c-4 -6 11 -10 37 -11 33 0 38 -2 23 -9 -15 -7 -10 -9 23
-9 47 -1 49 -15 3 -24 -39 -8 -103 3 -98 17 5 13 -65 36 -113 36 -45 0 -78
-31 -53 -51 11 -10 13 -24 9 -58 -14 -104 -14 -147 -3 -196 12 -50 12 -51 37
-38 l25 13 -25 1 c-14 1 0 5 30 8 49 5 56 4 62 -14 5 -17 6 -16 7 7 1 15 6 30
12 34 7 4 9 0 5 -13 -8 -24 2 -55 15 -47 5 3 9 0 9 -5 0 -14 75 -14 101 -1 23
13 25 37 3 61 -9 10 -13 23 -9 28 11 18 37 12 42 -9 5 -19 6 -20 19 -3 8 11
13 13 14 6 0 -7 6 -13 14 -13 8 0 17 6 19 13 4 10 6 10 6 0 1 -7 7 -13 15 -13
8 0 17 6 20 13 5 9 7 9 12 -1 5 -10 9 -10 21 -1 12 10 16 10 24 -2 6 -10 9
-10 9 -1 0 6 5 12 10 12 6 0 10 -7 10 -15 0 -8 -7 -15 -15 -15 -15 0 -32 -46
-21 -57 3 -4 6 3 6 15 0 19 5 22 46 22 31 0 43 -4 38 -11 -4 -7 -1 -10 7 -7 8
3 23 1 34 -5 20 -10 20 -10 1 12 -11 11 -15 21 -10 22 5 0 1 3 -8 7 -13 5 -15
11 -8 22 8 12 11 13 19 1 13 -21 24 4 16 40 -4 19 -2 41 6 55 9 18 10 30 1 47
-6 12 -13 29 -15 37 -5 12 -6 12 -6 -1 -1 -12 -14 -18 -53 -22 -29 -2 -54 -1
-56 4 -2 5 -14 -4 -28 -20 -24 -29 -32 -47 -16 -37 5 3 14 -4 22 -14 8 -10 17
-17 22 -14 4 3 8 1 8 -5 0 -22 -60 -25 -82 -3 -18 18 -66 15 -77 -5 -9 -15
-10 -14 -11 10 0 24 4 27 38 29 36 1 36 1 5 5 -18 2 -33 9 -33 15 0 7 17 9 45
5 32 -3 45 -1 42 7 -2 6 -24 11 -50 10 -41 0 -47 2 -47 20 0 12 -4 16 -8 11
-4 -6 -15 -2 -29 12 -21 21 -21 22 -2 28 11 4 35 1 54 -5 37 -12 95 -5 95 11
0 6 -15 9 -32 8 -68 -5 -88 0 -88 21 0 17 6 20 45 18 24 0 42 -5 39 -10 -3 -4
6 -8 20 -8 16 0 26 -6 26 -14 0 -18 79 -38 119 -30 52 11 34 22 -29 20 -57 -3
-60 -2 -60 21 0 21 4 23 48 23 35 0 43 -3 32 -11 -12 -8 -12 -10 5 -8 35 3 45
-1 45 -15 0 -17 81 -39 115 -30 39 10 29 21 -17 20 -55 -1 -79 9 -72 29 4 11
19 15 53 14 41 -1 43 -2 16 -9 -27 -7 -24 -8 19 -9 38 -1 47 -4 42 -16 -3 -10
1 -15 12 -16 9 0 35 -7 57 -15 22 -7 30 -12 18 -10 -12 2 -23 0 -25 -4 -2 -5
-10 -10 -18 -12 -18 -4 -43 -56 -33 -71 3 -6 1 -7 -5 -3 -7 4 -12 1 -12 -6 0
-7 -8 -2 -18 12 -22 32 -61 33 -86 2 -15 -20 -17 -28 -7 -49 10 -21 9 -27 -6
-38 -16 -12 -14 -15 16 -33 36 -22 42 -22 84 -2 29 14 37 40 12 40 -16 0 -20
15 -7 24 18 11 38 -31 39 -79 2 -90 1 -89 18 -75 9 8 15 9 15 2 0 -12 58 -11
78 1 7 5 12 3 12 -3 0 -6 5 -8 11 -4 18 11 27 -15 19 -52 -4 -19 -6 -57 -3
-85 5 -63 31 -90 82 -86 27 2 37 9 52 37 22 40 26 139 7 159 -10 11 -10 14 0
18 7 3 12 21 12 43 0 21 5 42 10 45 6 4 10 -11 11 -37 0 -36 2 -39 9 -20 7 16
18 22 45 24 57 2 60 3 67 13 4 6 8 23 8 38 0 16 4 26 10 22 5 -3 7 -12 4 -19
-12 -32 77 -52 123 -28 27 15 32 44 30 160 -1 52 1 96 5 99 5 2 8 10 8 18 0
16 -93 39 -130 32 -18 -3 -13 -5 15 -6 30 -1 36 -4 25 -11 -11 -7 -3 -10 28
-10 31 0 42 -4 39 -12 -2 -9 -24 -12 -66 -11 -65 1 -85 8 -62 22 13 8 -3 13
-103 28 -22 3 -48 0 -61 -7 -17 -9 -28 -9 -43 -1 -29 15 -98 17 -115 3 -10 -9
-22 -9 -45 -1 -16 6 -47 9 -69 6 l-38 -4 45 -2 c35 -2 41 -4 25 -11 -16 -7
-13 -9 18 -9 22 -1 37 -6 37 -13 0 -8 -14 -13 -38 -12 -80 1 -94 4 -89 17 9
26 -136 50 -160 26 -9 -9 -19 -9 -42 1 -38 15 -97 16 -116 0 -11 -9 -22 -9
-46 -1 -40 14 -102 14 -115 1 -7 -7 -20 -6 -40 5 -33 17 -90 20 -99 5z m-95
-20 c-11 -7 -5 -10 23 -10 26 0 37 -4 35 -12 -3 -8 -27 -13 -66 -13 -58 -1
-62 1 -62 22 0 20 5 23 43 23 31 0 38 -3 27 -10z m955 0 c-4 -6 5 -10 19 -10
14 0 26 -6 26 -12 0 -12 -18 -14 -102 -9 -21 1 -28 6 -28 21 0 17 7 20 46 20
27 0 43 -4 39 -10z m155 -1 c-12 -9 -11 -10 6 -6 12 2 27 1 34 -3 25 -16 0
-25 -59 -22 -52 3 -61 7 -61 23 0 16 7 19 48 19 36 0 44 -3 32 -11z m-80 -41
c0 -9 17 -12 60 -10 l60 4 0 -101 0 -101 -32 1 c-23 1 -26 3 -11 6 14 3 20 9
17 18 -6 16 -35 9 -47 -12 -4 -7 -15 -13 -22 -13 -12 0 -15 19 -16 93 -1 56
-4 82 -8 67 -7 -24 -8 -25 -15 -3 -4 11 -14 24 -23 27 -14 6 -14 8 3 21 24 18
34 19 34 3z m152 -8 c-1 -6 2 -27 7 -46 5 -19 6 -32 1 -29 -9 6 -15 -11 -23
-65 -3 -14 -5 17 -6 68 -1 71 2 93 12 89 6 -2 11 -10 9 -17z m-308 4 c23 -9
20 -20 -6 -29 -36 -12 -42 -12 -55 -2 -19 14 -16 25 10 30 12 2 25 5 29 6 3 0
13 -2 22 -5z m-826 -36 c-3 -32 -4 -33 -43 -30 -43 4 -65 17 -65 37 0 16 20
22 73 24 37 1 38 0 35 -31z m1262 13 c0 -41 -10 -50 -48 -44 -36 5 -72 28 -72
44 0 9 31 16 83 18 30 1 37 -2 37 -18z m-1113 -25 c3 -3 -17 -6 -45 -6 -29 0
-52 3 -52 8 0 8 88 7 97 -2z m783 -23 c0 -26 -3 -28 -45 -28 -42 0 -45 2 -45
28 0 25 3 27 45 27 42 0 45 -2 45 -27z m-210 -18 c0 -18 -5 -25 -20 -25 -15 0
-20 7 -20 25 0 18 5 25 20 25 15 0 20 -7 20 -25z m50 0 c0 -18 -5 -25 -20 -25
-15 0 -20 7 -20 25 0 18 5 25 20 25 15 0 20 -7 20 -25z m-310 -5 c0 -17 -7
-20 -48 -20 -41 0 -48 3 -49 20 -2 18 4 20 48 20 42 0 49 -3 49 -20z m-350 0
l-45 -7 43 -1 c59 -3 53 -22 -8 -22 -43 0 -50 3 -50 20 0 18 6 20 53 18 l52
-1 -45 -7z m-110 -26 c0 -28 -30 -34 -31 -6 0 14 -2 14 -8 -3 -11 -26 -5 -34
19 -28 16 4 20 0 20 -20 0 -22 -4 -25 -34 -25 -24 0 -33 4 -30 13 3 7 1 16 -5
20 -7 3 -11 -2 -11 -14 0 -15 -6 -21 -21 -21 -30 0 -22 42 11 51 l25 7 -27 1
c-23 1 -28 6 -28 25 0 22 3 24 60 24 57 0 60 -2 60 -24z m980 -39 c0 -57 -2
-65 -19 -65 -25 0 -35 27 -14 39 10 5 18 24 19 47 2 44 2 44 9 44 3 0 5 -29 5
-65z m280 39 c0 -28 -30 -34 -31 -6 0 14 -2 14 -8 -3 -11 -26 -5 -34 19 -28
16 4 20 0 20 -21 0 -23 -4 -26 -36 -26 -19 0 -33 4 -29 9 3 5 1 12 -5 16 -5 3
-10 -1 -10 -9 0 -10 -9 -16 -21 -16 -30 0 -22 42 11 51 l25 7 -27 1 c-23 1
-28 6 -28 25 0 22 3 24 60 24 57 0 60 -2 60 -24z m-662 -11 c3 -19 -1 -23 -22
-23 -21 0 -26 5 -26 26 0 21 4 25 23 22 14 -2 23 -11 25 -25z m332 -3 c0 -17
-7 -20 -45 -20 -38 0 -45 3 -45 20 0 17 7 20 45 20 38 0 45 -3 45 -20z m-210
-20 c0 -23 -4 -30 -20 -30 -14 0 -20 7 -20 23 0 27 7 37 27 37 8 0 13 -12 13
-30z m50 0 c0 -23 -4 -30 -20 -30 -14 0 -20 7 -20 23 0 27 7 37 27 37 8 0 13
-12 13 -30z m-620 0 c0 -17 -7 -20 -50 -20 -43 0 -50 3 -50 20 0 17 7 20 50
20 43 0 50 -3 50 -20z m785 -20 c-3 -5 -26 -10 -51 -10 -24 0 -44 5 -44 10 0
6 23 10 51 10 31 0 48 -4 44 -10z m-625 -10 c0 -5 -22 -10 -50 -10 -27 0 -50
5 -50 10 0 6 23 10 50 10 28 0 50 -4 50 -10z m150 0 c0 -5 -22 -10 -50 -10
-27 0 -50 5 -50 10 0 6 23 10 50 10 28 0 50 -4 50 -10z m160 -20 c0 -5 -22
-10 -50 -10 -27 0 -50 5 -50 10 0 6 23 10 50 10 28 0 50 -4 50 -10z m-620 -20
c0 -6 -27 -10 -60 -10 -33 0 -60 4 -60 10 0 6 27 10 60 10 33 0 60 -4 60 -10z
m1090 6 c0 -2 3 -11 6 -20 4 -11 0 -16 -12 -16 -16 0 -17 2 -4 10 11 7 0 10
-37 10 -29 0 -53 5 -53 10 0 6 23 10 50 10 28 0 50 -2 50 -4z m170 -6 c0 -6
-27 -10 -60 -10 -33 0 -60 4 -60 10 0 6 27 10 60 10 33 0 60 -4 60 -10z
m-1126 -6 c9 -3 16 -15 16 -25 0 -16 -8 -19 -50 -19 -38 0 -50 4 -50 15 0 11
7 14 25 9 14 -3 33 -3 42 0 15 6 15 8 3 16 -17 11 -9 13 14 4z m646 -4 c0 -5
-22 -10 -50 -10 -27 0 -50 5 -50 10 0 6 23 10 50 10 28 0 50 -4 50 -10z m155
-10 c-3 -5 -26 -10 -50 -10 -24 0 -47 5 -50 10 -4 6 15 10 50 10 35 0 54 -4
50 -10z m0 -30 c-3 -5 -26 -10 -51 -10 -24 0 -44 5 -44 10 0 6 23 10 51 10 31
0 48 -4 44 -10z m-155 -10 c0 -5 -22 -10 -50 -10 -27 0 -50 5 -50 10 0 6 23
10 50 10 28 0 50 -4 50 -10z m155 -81 c5 -5 -14 -9 -48 -9 -42 0 -55 3 -51 13
5 14 82 11 99 -4z m2 -33 c4 -3 -19 -6 -51 -6 -31 0 -55 4 -52 8 5 9 94 7 103
-2z m-7 -30 c8 -2 -11 -4 -43 -5 -32 0 -56 3 -53 7 4 7 57 6 96 -2z m5 -76
c-3 -5 -26 -10 -50 -10 -24 0 -47 5 -50 10 -4 6 15 10 50 10 35 0 54 -4 50
-10z"/>
<path d="M1875 1200 c-17 -7 -15 -9 13 -9 17 -1 32 -6 32 -12 0 -6 7 -4 15 5
8 8 15 17 15 20 0 9 -52 6 -75 -4z"/>
<path d="M2035 1203 c-11 -3 -25 -10 -32 -15 -7 -5 -21 -7 -32 -3 -10 3 -22 1
-26 -5 -3 -6 3 -10 14 -10 12 0 21 -7 21 -15 0 -9 -6 -12 -15 -9 -8 4 -15 1
-15 -5 0 -8 -5 -9 -19 -1 -11 5 -33 10 -50 10 -25 0 -31 -4 -31 -21 0 -15 5
-19 15 -15 9 3 15 0 15 -10 0 -8 -4 -12 -10 -9 -5 3 -10 1 -10 -4 0 -6 7 -11
15 -11 8 0 15 9 15 20 0 17 7 20 45 20 25 0 45 -4 45 -10 0 -5 -18 -10 -41
-10 -28 0 -39 -4 -37 -12 6 -16 58 -23 58 -9 0 6 6 10 12 9 7 -2 14 8 16 22 2
14 8 29 13 35 5 5 9 17 9 27 0 15 9 18 50 18 28 0 50 5 50 10 0 10 -39 12 -75
3z"/>
<path d="M1868 1061 c11 -7 11 -9 -2 -14 -9 -4 -15 -17 -15 -29 l2 -23 4 23
c2 12 11 22 19 22 8 0 14 7 14 15 0 8 -8 15 -17 15 -14 0 -15 -2 -5 -9z"/>
<path d="M915 829 c-3 -3 9 -9 26 -13 33 -6 79 1 79 13 0 9 -100 9 -105 0z"/>
<path d="M1258 793 c17 -2 47 -2 65 0 17 2 3 4 -33 4 -36 0 -50 -2 -32 -4z"/>
<path d="M469 733 c-10 -2 -19 -12 -21 -21 -4 -14 2 -16 39 -13 25 2 42 8 40
14 -4 13 -37 24 -58 20z"/>
<path d="M1720 720 c-10 -19 -8 -20 42 -20 l52 0 -22 20 c-12 11 -30 20 -41
20 -11 0 -25 -9 -31 -20z"/>
<path d="M465 680 c3 -5 20 -10 36 -10 18 0 28 4 24 10 -3 6 -20 10 -36 10
-18 0 -28 -4 -24 -10z"/>
<path d="M1712 685 c7 -7 97 -9 105 -2 3 4 -20 7 -52 7 -32 0 -56 -2 -53 -5z"/>
<path d="M928 674 c-21 -6 -28 -26 -21 -54 4 -17 8 -19 15 -8 7 10 11 10 15 1
2 -7 11 -13 18 -13 7 0 16 6 18 13 4 10 6 10 6 0 1 -7 7 -13 15 -13 8 0 17 6
19 13 4 9 8 8 16 -3 8 -12 11 -7 11 21 0 21 -5 36 -12 37 -61 8 -85 10 -100 6z
m92 -34 c0 -5 -22 -10 -50 -10 -27 0 -50 5 -50 10 0 6 23 10 50 10 28 0 50 -4
50 -10z"/>
<path d="M1760 600 c-14 -3 -27 -15 -29 -25 -2 -11 -10 -29 -17 -40 -8 -11
-14 -27 -14 -36 0 -9 -7 -22 -16 -29 -13 -11 -16 -10 -21 8 -6 25 -18 28 -27
7 -8 -22 -55 -18 -75 6 l-17 21 -2 -26 c-2 -24 1 -25 61 -28 l62 -3 -3 -70
c-2 -38 1 -82 7 -97 l11 -28 -78 0 c-123 0 -121 -17 4 -24 126 -8 102 -8 519
2 l320 8 -290 2 c-159 1 -295 6 -302 10 -8 5 -9 13 -3 22 16 25 12 166 -4 180
-15 12 -42 78 -38 93 1 4 -11 7 -28 7 -36 0 -40 17 -5 22 15 2 22 7 17 14 -4
6 -18 8 -32 4z m21 -70 c41 -23 7 -72 -36 -52 -27 13 -32 31 -13 50 15 15 24
15 49 2z m39 -167 l0 -93 -60 0 -60 0 0 93 0 92 60 0 60 0 0 -92z"/>
<path d="M488 593 c-10 -2 -18 -11 -18 -18 0 -7 -8 -28 -17 -47 -9 -18 -22
-45 -30 -60 -16 -32 -18 -184 -2 -194 8 -4 7 -9 -2 -15 -7 -4 -10 -11 -5 -16
7 -8 917 -5 925 3 2 2 -162 4 -365 4 -339 0 -416 5 -385 24 7 4 11 40 11 90 0
68 -4 88 -20 109 -11 14 -23 39 -26 56 -6 26 -11 31 -35 31 -16 0 -29 5 -29
10 0 6 9 10 20 10 11 0 20 5 20 10 0 10 -12 11 -42 3z m33 -63 c23 -13 25 -33
4 -50 -30 -25 -79 16 -54 46 14 17 24 17 50 4z m43 -168 l1 -92 -62 0 -63 0 0
95 0 96 61 -3 61 -3 2 -93z"/>
<path d="M1533 360 c0 -47 2 -66 4 -42 2 23 2 61 0 85 -2 23 -4 4 -4 -43z"/>
<path d="M40 111 c0 -59 -66 -56 1460 -56 1526 0 1460 -3 1460 56 0 16 -4 29
-10 29 -5 0 -10 -11 -10 -25 0 -21 -5 -25 -27 -25 -21 -1 -2636 0 -2837 0 -25
0 -28 3 -24 25 3 14 1 25 -3 25 -5 0 -9 -13 -9 -29z"/>
<path d="M100 120 c13 -24 33 -26 50 -5 7 9 36 15 78 18 51 2 43 4 -36 5 -100
2 -102 1 -92 -18z"/>
<path d="M2755 129 c33 -5 70 -13 83 -19 17 -7 29 -5 55 10 l32 20 -115 -1
c-106 -1 -110 -2 -55 -10z"/>
</g>
</svg>
