<?xml version="1.0" standalone="no"?>
<!DOCTYPE svg PUBLIC "-//W3C//DTD SVG 20010904//EN"
 "http://www.w3.org/TR/2001/REC-SVG-20010904/DTD/svg10.dtd">
<svg version="1.0" xmlns="http://www.w3.org/2000/svg"
 width="300.000000pt" height="171.000000pt" viewBox="0 0 300.000000 171.000000"
 preserveAspectRatio="xMidYMid meet">
<metadata>
Created by potrace 1.10, written by Peter Selinger 2001-2011
</metadata>
<g transform="translate(0.000000,171.000000) scale(0.100000,-0.100000)"
fill="#000000" stroke="none">
<path d="M349 1571 l-24 -19 -3 -706 -2 -706 686 0 c649 0 686 -1 680 -17 -6
-17 -5 -17 8 0 12 16 48 17 500 17 l486 0 0 700 0 701 -25 24 -24 25 -1129 0
c-1097 0 -1130 -1 -1153 -19z m2266 -691 l0 -625 -1115 0 -1115 0 -3 619 c-2
489 0 621 10 628 7 4 510 7 1118 5 l1105 -2 0 -625z m-2140 -672 l80 -1 -85
-7 c-83 -7 -117 1 -104 22 4 6 10 6 17 -1 6 -6 47 -12 92 -13z m2165 2 c0 -11
-2 -12 -47 -16 -40 -3 -44 13 -5 19 49 7 52 7 52 -3z m-567 -37 c-315 -2 -831
-2 -1145 0 -315 1 -58 2 572 2 630 0 887 -1 573 -2z"/>
<path d="M474 1465 c-3 -8 -3 -19 1 -25 9 -14 45 -13 45 3 0 9 2 9 8 0 4 -7
26 -13 47 -13 22 0 49 0 59 -1 10 0 23 4 29 10 6 6 -15 8 -58 7 -57 -2 -68 0
-81 18 -15 20 -15 20 -12 1 2 -12 -4 -21 -16 -23 -15 -3 -18 0 -13 17 6 24 -1
29 -9 6z"/>
<path d="M2255 1460 c-13 -42 9 -50 140 -50 131 0 153 8 140 50 -6 19 -14 20
-140 20 -126 0 -134 -1 -140 -20z m182 -14 c4 -3 -28 -6 -70 -6 -42 0 -77 4
-77 8 0 9 138 7 147 -2z"/>
<path d="M1080 1448 c0 -4 23 -8 52 -8 28 0 49 3 46 6 -10 9 -98 11 -98 2z"/>
<path d="M1620 1448 c0 -4 19 -8 42 -8 23 0 38 3 34 7 -10 10 -76 11 -76 1z"/>
<path d="M1512 1238 c-17 -17 -17 -539 0 -556 17 -17 994 -17 1004 0 4 6 9
125 12 264 4 224 3 256 -12 279 l-16 25 -488 0 c-366 0 -491 -3 -500 -12z
m996 -246 c1 -163 -1 -241 -8 -237 -5 3 -10 -1 -10 -9 0 -11 -6 -13 -29 -6
-19 5 -31 5 -33 -2 -3 -7 -12 -6 -27 3 -19 11 -25 11 -28 2 -5 -14 -33 -18
-33 -5 0 4 -153 7 -340 7 -187 0 -340 -3 -340 -7 0 -5 -20 -8 -45 -8 -57 0
-59 18 -2 23 l42 4 -42 1 c-26 1 -47 -4 -57 -13 -18 -18 -27 -19 -25 -2 1 6 1
23 -1 37 -1 23 -2 23 -10 5 -5 -12 -9 73 -9 211 -1 127 2 234 6 237 3 4 227 6
497 5 l491 -3 3 -243z m-255 -289 c-134 -2 -352 -2 -485 0 -134 1 -25 2 242 2
267 0 376 -1 243 -2z"/>
<path d="M1526 1204 c-3 -9 -5 -100 -4 -202 l2 -187 6 195 5 195 478 0 c262 0
477 3 477 8 0 4 -216 7 -479 7 -427 0 -480 -2 -485 -16z"/>
<path d="M1753 1026 c-15 -13 -25 -28 -20 -32 4 -4 17 2 30 14 29 28 61 28 88
1 27 -27 21 -66 -12 -92 -24 -17 -30 -18 -55 -6 -17 8 -30 24 -32 37 -4 23
-16 29 -27 12 -9 -15 23 -57 55 -70 55 -23 121 35 106 93 -16 64 -83 86 -133
43z"/>
<path d="M1902 1018 c-2 -35 0 -38 26 -37 22 1 23 2 5 6 -16 3 -23 13 -26 36
-4 31 -4 31 -5 -5z"/>
<path d="M1962 1017 c-17 -20 2 -41 31 -33 14 3 28 2 32 -4 9 -15 35 0 35 21
0 24 -29 37 -41 18 -6 -11 -11 -11 -21 -1 -15 15 -23 15 -36 -1z"/>
<path d="M2077 1024 c-4 -4 -7 -21 -7 -38 0 -21 3 -27 9 -18 4 8 11 13 15 13
22 -3 27 2 24 21 -3 23 -27 35 -41 22z"/>
<path d="M1960 938 c-16 -33 -26 -35 -35 -8 -10 31 -25 23 -24 -12 1 -31 1
-31 8 -8 l7 25 8 -22 c4 -13 11 -23 15 -23 4 0 13 10 19 23 10 21 11 21 11 1
1 -18 7 -21 41 -21 32 0 40 4 40 19 0 23 20 24 27 0 3 -11 15 -19 34 -20 23
-2 29 2 29 18 0 25 -25 36 -45 20 -10 -9 -15 -9 -15 -1 0 6 -9 11 -20 11 -12
0 -20 -7 -20 -17 0 -15 -1 -15 -14 2 -8 11 -20 16 -29 12 -10 -4 -17 0 -20 11
-3 13 -7 11 -17 -10z"/>
<path d="M2157 933 c-3 -5 -5 -20 -5 -35 0 -23 5 -28 24 -28 14 0 24 6 24 14
0 9 9 12 28 9 23 -3 24 -2 7 6 -19 9 -19 10 2 10 12 1 24 -5 26 -11 3 -8 6 -6
6 4 1 9 9 22 19 27 15 9 15 10 -5 11 -13 0 -23 -5 -23 -11 0 -8 -5 -8 -15 1
-12 10 -18 10 -29 1 -10 -8 -16 -9 -21 -1 -7 12 -32 14 -38 3z m31 -28 c-1
-14 -7 -25 -13 -25 -6 0 -12 11 -13 25 -1 16 3 25 13 25 10 0 14 -9 13 -25z"/>
<path d="M470 1220 c0 -5 5 -10 10 -10 6 0 10 -13 10 -30 0 -40 18 -38 22 3 2
17 8 30 13 27 6 -3 9 -15 7 -27 -1 -12 2 -24 8 -28 6 -4 10 4 10 19 0 35 18
33 23 -1 4 -26 4 -26 6 5 1 22 -3 32 -14 32 -8 0 -15 4 -15 8 0 4 -18 9 -40
10 -23 2 -40 -2 -40 -8z"/>
<path d="M679 1228 c-6 -24 -5 -70 2 -74 5 -3 9 2 9 10 0 9 7 16 15 16 21 0
19 18 -2 23 -17 4 -17 5 0 6 24 1 22 21 -3 21 -11 0 -20 -1 -21 -2z"/>
<path d="M1058 1218 c-2 -7 -1 -26 3 -43 6 -28 7 -28 9 -5 1 14 3 33 5 43 4
19 -11 24 -17 5z"/>
<path d="M597 1204 c-23 -24 7 -65 34 -48 9 5 7 10 -7 15 -18 7 -18 8 -1 8 10
1 17 7 15 14 -5 14 -31 21 -41 11z"/>
<path d="M733 1185 c1 -20 8 -31 20 -33 14 -3 17 3 16 30 -1 23 -3 26 -6 11
-2 -13 -8 -23 -13 -23 -5 0 -11 10 -13 23 -4 15 -5 12 -4 -8z"/>
<path d="M823 1185 c2 -24 7 -30 25 -31 18 -1 22 4 22 27 0 16 -4 29 -10 29
-5 0 -10 -9 -10 -20 0 -27 -17 -25 -23 3 -4 15 -5 12 -4 -8z"/>
<path d="M881 1177 c1 -21 3 -25 6 -12 7 31 23 42 23 18 0 -26 15 -37 38 -28
15 6 15 8 -3 15 -18 8 -18 9 -2 9 34 2 11 26 -26 28 -36 2 -37 1 -36 -30z"/>
<path d="M994 1195 c-9 -22 22 -53 37 -38 15 15 7 47 -14 51 -9 2 -20 -4 -23
-13z"/>
<path d="M470 1070 c0 -38 20 -60 20 -22 1 16 1 16 14 0 18 -24 21 -23 20 10
-1 37 -11 52 -35 52 -16 0 -19 -7 -19 -40z"/>
<path d="M830 1076 c0 -22 6 -36 16 -40 37 -14 47 28 14 57 -28 23 -30 22 -30
-17z"/>
<path d="M890 1069 c0 -22 4 -38 8 -35 12 7 13 76 2 76 -6 0 -10 -18 -10 -41z"/>
<path d="M1010 1085 c-6 -16 -13 -36 -15 -42 -2 -7 0 -13 4 -13 5 0 11 6 14
13 3 9 9 9 23 1 11 -5 30 -10 44 -10 20 1 25 5 22 25 -3 32 -7 35 -29 27 -17
-7 -17 -8 0 -20 23 -17 22 -25 -3 -19 -11 3 -20 11 -20 17 0 7 -6 21 -14 32
-14 18 -15 18 -26 -11z"/>
<path d="M592 1069 c4 -42 23 -49 22 -7 0 18 -6 34 -13 36 -9 3 -11 -6 -9 -29z"/>
<path d="M1228 1095 c-7 -7 3 -65 12 -65 4 0 7 14 5 30 -2 31 -8 44 -17 35z"/>
<path d="M534 1075 c-8 -21 19 -50 37 -39 9 5 8 9 -7 15 -18 7 -18 8 -1 8 23
1 17 25 -6 29 -10 2 -20 -4 -23 -13z"/>
<path d="M633 1066 c1 -19 8 -30 20 -32 13 -2 17 5 16 29 -1 24 -3 26 -6 10
-2 -13 -8 -23 -13 -23 -5 0 -11 10 -13 23 -4 15 -5 13 -4 -7z"/>
<path d="M680 1060 c0 -16 4 -30 9 -30 5 0 11 14 13 30 3 20 0 30 -9 30 -8 0
-13 -12 -13 -30z"/>
<path d="M721 1058 c1 -21 3 -26 6 -13 8 34 23 41 23 12 0 -15 5 -27 11 -27 6
0 9 12 7 28 -2 19 -9 28 -25 30 -20 3 -23 -1 -22 -30z"/>
<path d="M782 1060 c0 -23 4 -30 19 -30 14 0 19 7 19 30 0 23 -5 30 -18 30
-14 0 -19 -8 -20 -30z"/>
<path d="M920 1066 c0 -28 14 -41 32 -30 8 5 6 10 -8 15 -18 7 -17 8 3 8 28 1
20 31 -8 31 -13 0 -19 -7 -19 -24z"/>
<path d="M1120 1076 c0 -9 5 -16 10 -16 6 0 10 -5 10 -11 0 -5 -4 -7 -10 -4
-5 3 -10 1 -10 -5 0 -6 8 -10 18 -8 23 5 23 52 -1 56 -10 2 -17 -3 -17 -12z"/>
<path d="M1174 1075 c-9 -21 3 -45 21 -45 21 0 19 17 -2 23 -14 4 -13 5 4 6
16 1 21 6 17 16 -4 8 -13 15 -20 15 -8 0 -17 -7 -20 -15z"/>
<path d="M470 980 c0 -5 5 -10 10 -10 6 0 10 -14 10 -31 0 -17 4 -28 10 -24 6
3 10 16 10 29 0 12 5 27 12 34 9 9 5 12 -20 12 -18 0 -32 -4 -32 -10z"/>
<path d="M550 849 c-15 -4 8 -7 59 -8 46 -1 82 1 79 4 -8 8 -112 11 -138 4z"/>
<path d="M857 848 c-7 -4 39 -8 102 -8 63 0 112 2 109 5 -8 8 -198 11 -211 3z"/>
<path d="M1080 849 c0 -8 74 -15 113 -11 53 6 26 17 -43 17 -39 0 -70 -3 -70
-6z"/>
<path d="M470 801 c0 -5 38 -9 85 -9 47 0 85 4 85 9 0 5 -38 9 -85 9 -47 0
-85 -4 -85 -9z"/>
<path d="M650 801 c0 -6 53 -10 130 -10 72 0 128 4 125 9 -7 12 -255 13 -255
1z"/>
<path d="M482 728 c-7 -7 -12 -19 -12 -28 0 -34 22 -40 136 -40 62 0 119 3
128 6 19 7 21 45 4 62 -17 17 -239 17 -256 0z m108 -29 c0 -5 -18 -9 -40 -9
-22 0 -40 4 -40 8 0 4 18 8 40 9 22 0 40 -3 40 -8z m70 1 c0 -5 -13 -10 -30
-10 -16 0 -30 5 -30 10 0 6 14 10 30 10 17 0 30 -4 30 -10z"/>
<path d="M1071 476 c-16 -19 -11 -46 12 -60 25 -16 52 4 52 40 0 24 -5 30 -26
32 -14 2 -31 -4 -38 -12z"/>
<path d="M2092 478 c-23 -23 -7 -68 24 -68 21 0 44 30 44 56 0 20 -5 24 -28
24 -15 0 -33 -5 -40 -12z"/>
<path d="M1381 473 c3 -35 17 -45 67 -47 29 -1 52 1 52 4 0 3 -3 15 -6 28 -6
19 -13 22 -60 22 -30 0 -54 -3 -53 -7z"/>
<path d="M705 460 c-4 -7 -1 -16 6 -21 8 -5 15 -5 17 -1 1 4 21 6 43 4 22 -3
46 1 52 7 8 8 1 11 -29 11 -21 0 -49 3 -60 6 -12 3 -25 0 -29 -6z"/>
<path d="M2400 449 c0 -15 4 -19 16 -15 9 3 36 6 60 6 25 0 44 5 44 11 0 7
-18 10 -49 7 -27 -1 -47 0 -44 5 2 4 -3 7 -11 7 -10 0 -16 -9 -16 -21z"/>
<path d="M423 450 c5 -21 67 -26 67 -6 0 10 -9 16 -25 16 -14 0 -25 -6 -25
-12 0 -9 -4 -8 -11 2 -9 13 -10 13 -6 0z"/>
<path d="M1760 450 c0 -5 18 -10 40 -10 22 0 40 5 40 10 0 6 -18 10 -40 10
-22 0 -40 -4 -40 -10z"/>
<path d="M41 112 c-2 -65 -83 -62 1459 -62 1534 0 1460 -3 1460 59 0 17 -5 31
-10 31 -6 0 -8 -10 -4 -24 3 -13 1 -27 -5 -30 -15 -10 -2873 -8 -2882 2 -4 4
-9 18 -12 32 -3 21 -5 19 -6 -8z"/>
<path d="M90 132 c0 -5 6 -16 14 -27 13 -18 14 -18 39 1 36 26 33 34 -13 34
-22 0 -40 -4 -40 -8z"/>
<path d="M2765 132 c-13 -3 3 -10 44 -18 64 -13 109 -5 96 17 -6 9 -105 11
-140 1z"/>
</g>
</svg>
