<?xml version="1.0" standalone="no"?>
<!DOCTYPE svg PUBLIC "-//W3C//DTD SVG 20010904//EN"
 "http://www.w3.org/TR/2001/REC-SVG-20010904/DTD/svg10.dtd">
<svg version="1.0" xmlns="http://www.w3.org/2000/svg"
 width="300.000000pt" height="171.000000pt" viewBox="0 0 300.000000 171.000000"
 preserveAspectRatio="xMidYMid meet">
<metadata>
Created by potrace 1.10, written by Peter Selinger 2001-2011
</metadata>
<g transform="translate(0.000000,171.000000) scale(0.100000,-0.100000)"
fill="#000000" stroke="none">
<path d="M1208 1555 c-15 -9 -32 -24 -38 -35 -6 -12 -10 -241 -10 -660 l0
-642 28 -28 c38 -38 84 -43 362 -38 238 3 256 7 279 53 14 28 24 1238 11 1286
-21 74 -19 74 -329 76 -230 2 -281 0 -303 -12z m130 -40 l12 -26 152 3 c148 3
153 4 163 26 13 30 81 31 119 1 l26 -20 0 -635 c0 -621 0 -634 -20 -654 -19
-19 -33 -20 -290 -20 -257 0 -271 1 -290 20 -20 20 -20 33 -20 650 l0 631 25
24 c35 36 107 36 123 0z"/>
<path d="M1400 1440 c0 -5 16 -10 35 -10 19 0 35 5 35 10 0 6 -16 10 -35 10
-19 0 -35 -4 -35 -10z"/>
<path d="M1485 1440 c-4 -6 18 -10 59 -10 37 0 66 4 66 10 0 6 -26 10 -59 10
-33 0 -63 -4 -66 -10z"/>
<path d="M1460 1353 c0 -9 11 -11 33 -9 17 3 38 5 45 5 6 1 12 5 12 10 0 5
-20 8 -45 7 -28 -1 -45 -6 -45 -13z"/>
<path d="M1237 1313 c-4 -3 -7 -75 -7 -160 l0 -153 270 0 270 0 0 160 0 160
-263 0 c-145 0 -267 -3 -270 -7z m523 -153 l0 -140 -257 0 -258 0 0 140 0 140
258 0 257 0 0 -140z"/>
<path d="M1678 973 c-14 -4 -18 -15 -18 -59 l0 -54 39 0 c38 0 51 11 51 46 0
21 -16 17 -28 -8 l-11 -23 -2 25 c-1 14 -1 28 -1 31 1 3 -5 6 -13 6 -8 0 -12
-4 -9 -9 3 -4 0 -8 -5 -8 -17 0 -13 37 5 44 21 8 20 8 39 -10 9 -9 19 -14 22
-10 16 15 -37 37 -69 29z"/>
<path d="M1240 915 l0 -45 186 0 185 0 -3 43 -3 42 -182 3 -183 2 0 -45z m203
6 c36 -2 15 -21 -23 -21 -22 0 -40 4 -40 8 0 14 10 20 28 17 9 -2 25 -4 35 -4z"/>
<path d="M1234 799 c-2 -4 0 -10 4 -13 13 -8 82 -4 82 5 0 9 -80 17 -86 8z"/>
<path d="M1620 780 c0 -25 4 -30 25 -30 21 0 25 5 25 30 0 25 -4 30 -25 30
-21 0 -25 -5 -25 -30z"/>
<path d="M1702 778 c3 -29 7 -33 36 -36 31 -3 32 -2 32 32 0 35 -1 36 -36 36
-34 0 -35 -1 -32 -32z"/>
<path d="M1707 703 c-4 -3 -7 -19 -7 -35 0 -25 3 -28 35 -28 33 0 35 2 35 35
0 32 -3 35 -28 35 -16 0 -32 -3 -35 -7z"/>
<path d="M1230 690 c0 -5 16 -10 35 -10 19 0 35 5 35 10 0 6 -16 10 -35 10
-19 0 -35 -4 -35 -10z"/>
<path d="M1620 670 c0 -25 4 -30 25 -30 21 0 25 5 25 30 0 25 -4 30 -25 30
-21 0 -25 -5 -25 -30z"/>
<path d="M1260 660 c0 -5 16 -10 36 -10 21 0 33 4 29 10 -3 6 -19 10 -36 10
-16 0 -29 -4 -29 -10z"/>
<path d="M1707 604 c-4 -4 -7 -20 -7 -35 0 -22 6 -30 26 -35 32 -8 46 6 42 42
-2 23 -9 30 -28 32 -14 2 -29 0 -33 -4z"/>
<path d="M1230 590 c0 -5 16 -10 36 -10 21 0 33 4 29 10 -3 6 -19 10 -36 10
-16 0 -29 -4 -29 -10z"/>
<path d="M1620 570 c0 -25 4 -30 25 -30 21 0 25 5 25 30 0 25 -4 30 -25 30
-21 0 -25 -5 -25 -30z"/>
<path d="M1234 558 c-3 -4 18 -8 47 -8 29 0 49 3 46 6 -10 10 -88 11 -93 2z"/>
<path d="M1704 496 c-3 -8 -4 -25 -2 -38 2 -18 9 -23 33 -23 28 0 30 3 30 35
0 31 -3 35 -28 38 -17 2 -29 -2 -33 -12z"/>
<path d="M1238 475 c-5 -24 -4 -25 46 -23 50 1 50 2 9 5 -24 2 -43 9 -43 14 0
6 5 7 11 3 7 -4 10 -1 7 6 -8 24 -25 21 -30 -5z"/>
<path d="M1620 470 c0 -25 4 -30 25 -30 21 0 25 5 25 30 0 25 -4 30 -25 30
-21 0 -25 -5 -25 -30z"/>
<path d="M1460 285 c0 -6 20 -10 45 -11 28 0 45 4 45 12 0 7 -16 11 -45 10
-25 0 -45 -6 -45 -11z"/>
</g>
</svg>
