<?xml version="1.0" standalone="no"?>
<!DOCTYPE svg PUBLIC "-//W3C//DTD SVG 20010904//EN"
 "http://www.w3.org/TR/2001/REC-SVG-20010904/DTD/svg10.dtd">
<svg version="1.0" xmlns="http://www.w3.org/2000/svg"
 width="300.000000pt" height="171.000000pt" viewBox="0 0 300.000000 171.000000"
 preserveAspectRatio="xMidYMid meet">
<metadata>
Created by potrace 1.10, written by Peter Selinger 2001-2011
</metadata>
<g transform="translate(0.000000,171.000000) scale(0.100000,-0.100000)"
fill="#000000" stroke="none">
<path d="M341 1464 c-21 -26 -21 -34 -21 -675 l0 -649 686 0 c649 0 686 -1
680 -18 -6 -16 -5 -16 8 1 12 16 48 17 500 17 l486 0 0 649 c0 641 0 649 -21
675 l-20 26 -1139 0 -1139 0 -20 -26z m2291 -56 c6 -18 -3 -58 -13 -58 -5 0
-8 6 -7 13 2 9 -76 13 -362 14 -201 2 -400 5 -442 8 -59 4 -78 2 -78 -7 0 -9
-3 -9 -11 2 -9 12 -12 13 -16 1 -5 -11 -7 -11 -14 0 -8 12 -11 11 -19 -1 -5
-8 -10 -10 -10 -5 0 14 -320 14 -320 0 0 -5 -5 -3 -10 5 -9 13 -11 13 -20 0
-9 -13 -10 -13 -10 0 0 13 -1 13 -10 0 -8 -12 -10 -12 -10 -1 0 11 -16 12 -82
6 -46 -4 -86 -12 -90 -18 -6 -9 -8 -9 -8 0 0 18 -340 18 -340 0 0 -9 -2 -9 -8
1 -12 18 -358 13 -354 -5 1 -7 -5 -13 -13 -13 -15 0 -22 50 -8 63 3 4 511 7
1129 7 870 0 1123 -3 1126 -12z m-4 -613 l-3 -540 -1105 -3 c-608 -1 -1115 0
-1127 3 l-23 5 0 534 c0 293 2 535 4 537 2 2 511 4 1130 4 l1126 0 -2 -540z
m-2116 -585 c61 0 109 -2 107 -4 -3 -3 -58 -6 -124 -7 -89 -1 -120 2 -123 11
-3 9 1 11 12 7 10 -4 68 -7 128 -7z m2116 -1 c-2 -6 -7 -10 -11 -10 -4 1 -53
2 -109 3 l-103 2 105 6 c58 3 109 7 113 8 5 1 7 -3 5 -9z m-1791 -6 c-20 -2
-52 -2 -70 0 -17 2 0 4 38 4 39 0 53 -2 32 -4z m775 0 c-62 -2 -161 -2 -220 0
-59 1 -8 3 113 3 121 0 169 -2 107 -3z m461 -30 c-315 -2 -831 -2 -1145 0
-315 1 -58 2 572 2 630 0 887 -1 573 -2z"/>
<path d="M1420 1300 c0 -5 11 -10 24 -10 14 0 28 5 31 10 4 6 -7 10 -24 10
-17 0 -31 -4 -31 -10z"/>
<path d="M1495 1300 c3 -5 24 -10 45 -10 21 0 42 5 45 10 4 6 -13 10 -45 10
-32 0 -49 -4 -45 -10z"/>
<path d="M1180 1188 c0 -4 14 -8 30 -8 17 0 30 4 30 9 0 5 -13 9 -30 9 -16 -1
-30 -5 -30 -10z"/>
<path d="M400 1160 c0 -6 83 -10 220 -10 l220 0 0 -125 0 -125 -222 -3 -223
-2 228 -3 228 -2 -3 138 -3 137 -222 2 c-140 2 -223 -1 -223 -7z"/>
<path d="M986 1163 c-3 -4 -6 -66 -6 -140 l0 -133 233 2 232 3 -227 2 -228 3
0 125 0 125 226 0 c141 0 223 4 219 10 -6 10 -438 13 -449 3z"/>
<path d="M1570 1030 l0 -140 225 0 225 0 0 140 0 139 -225 0 -225 0 0 -139z
m440 -5 l0 -125 -215 0 -215 0 0 125 0 125 215 0 215 0 0 -125z"/>
<path d="M2156 1163 c-3 -3 -6 -66 -6 -140 l0 -133 233 2 232 3 -227 2 -228 3
0 125 0 125 226 0 c142 0 223 4 219 10 -6 10 -438 14 -449 3z"/>
<path d="M1420 1025 c0 -72 4 -114 10 -110 11 7 10 214 -2 221 -4 3 -8 -47 -8
-111z"/>
<path d="M400 820 l0 -30 150 0 150 0 0 28 0 29 -150 1 -150 1 0 -29z"/>
<path d="M987 844 c-4 -4 -7 -18 -7 -31 l0 -23 156 0 155 0 -3 28 -3 27 -146
3 c-80 1 -148 -1 -152 -4z"/>
<path d="M1570 820 l0 -30 150 0 150 0 0 30 0 30 -150 0 -150 0 0 -30z"/>
<path d="M2157 844 c-4 -4 -7 -18 -7 -31 l0 -23 156 0 155 0 -3 28 -3 27 -146
3 c-80 1 -148 -1 -152 -4z"/>
<path d="M774 804 c3 -9 6 -18 6 -20 0 -2 11 -4 24 -4 19 0 36 16 36 34 0 2
-16 3 -36 4 -29 1 -35 -2 -30 -14z"/>
<path d="M1362 803 c2 -11 14 -19 31 -21 22 -3 27 1 27 17 0 17 -6 21 -31 21
-24 0 -30 -4 -27 -17z"/>
<path d="M1950 799 c0 -13 7 -19 24 -19 19 0 36 16 36 34 0 2 -13 3 -30 4 -23
0 -30 -4 -30 -19z"/>
<path d="M2532 803 c5 -26 58 -31 58 -6 0 14 -8 19 -31 21 -24 2 -30 -1 -27
-15z"/>
<path d="M802 728 c2 -15 10 -23 23 -23 13 0 21 8 23 23 3 18 -1 22 -23 22
-22 0 -26 -4 -23 -22z"/>
<path d="M1337 743 c-15 -14 -6 -33 16 -32 12 0 16 3 9 6 -10 4 -10 8 -1 19 9
11 8 14 -3 14 -8 0 -18 -3 -21 -7z"/>
<path d="M1392 728 c2 -15 10 -23 23 -23 13 0 21 8 23 23 3 18 -1 22 -23 22
-22 0 -26 -4 -23 -22z"/>
<path d="M1973 734 c-3 -8 -1 -20 5 -26 16 -16 42 -2 42 22 0 24 -38 28 -47 4z"/>
<path d="M2562 728 c2 -15 10 -23 23 -23 13 0 21 8 23 23 3 18 -1 22 -23 22
-22 0 -26 -4 -23 -22z"/>
<path d="M818 683 c-10 -3 -18 -13 -18 -24 0 -14 7 -19 25 -19 18 0 25 5 25
19 0 23 -8 29 -32 24z"/>
<path d="M1987 682 c-25 -5 -17 -36 11 -40 16 -3 22 2 22 17 0 23 -8 29 -33
23z"/>
<path d="M406 665 c4 -8 16 -15 29 -15 12 0 28 7 35 15 11 13 7 15 -28 15 -33
0 -40 -3 -36 -15z"/>
<path d="M989 671 c11 -7 11 -9 0 -14 -8 -3 1 -6 19 -6 30 -1 32 1 18 14 -8 8
-23 15 -33 15 -14 0 -15 -2 -4 -9z"/>
<path d="M1390 659 c0 -15 5 -20 22 -17 34 5 37 38 4 38 -20 0 -26 -5 -26 -21z"/>
<path d="M1573 665 c0 -15 32 -20 61 -9 29 11 17 24 -22 24 -28 0 -39 -4 -39
-15z"/>
<path d="M2159 671 c11 -7 11 -9 0 -14 -8 -3 0 -6 17 -6 16 -1 39 6 50 14 17
13 15 14 -31 15 -32 0 -45 -3 -36 -9z"/>
<path d="M2510 659 c0 -24 23 -21 28 4 2 10 -3 17 -12 17 -10 0 -16 -9 -16
-21z"/>
<path d="M2560 660 c0 -15 7 -20 25 -20 18 0 25 5 25 20 0 15 -7 20 -25 20
-18 0 -25 -5 -25 -20z"/>
<path d="M804 605 c-8 -20 4 -35 27 -35 14 0 19 7 19 25 0 18 -5 25 -20 25
-11 0 -23 -7 -26 -15z"/>
<path d="M1390 595 c0 -22 4 -26 23 -23 14 2 22 10 22 23 0 13 -8 21 -22 23
-19 3 -23 -1 -23 -23z"/>
<path d="M1974 605 c-8 -20 4 -35 27 -35 14 0 19 7 19 25 0 18 -5 25 -20 25
-11 0 -23 -7 -26 -15z"/>
<path d="M2560 595 c0 -22 4 -26 23 -23 14 2 22 10 22 23 0 13 -8 21 -22 23
-19 3 -23 -1 -23 -23z"/>
<path d="M400 538 c0 -5 16 -8 36 -8 20 0 33 4 29 10 -7 11 -65 9 -65 -2z"/>
<path d="M802 528 c2 -15 10 -23 23 -23 13 0 21 8 23 23 3 18 -1 22 -23 22
-22 0 -26 -4 -23 -22z"/>
<path d="M980 528 c0 -14 7 -18 33 -17 l32 1 -30 8 -30 8 33 1 c18 0 31 5 27
10 -3 5 -19 9 -35 9 -22 -1 -30 -6 -30 -20z"/>
<path d="M1337 543 c-15 -14 -6 -33 16 -32 12 0 17 3 10 5 -7 3 -9 12 -6 20 5
14 -8 19 -20 7z"/>
<path d="M1390 524 c0 -21 4 -25 23 -22 14 2 23 11 25 26 3 18 -1 22 -22 22
-21 0 -26 -5 -26 -26z"/>
<path d="M1570 528 c0 -14 8 -18 33 -17 l32 1 -30 8 -30 8 33 1 c18 0 31 5 27
11 -3 5 -19 8 -35 7 -21 -1 -30 -7 -30 -19z"/>
<path d="M1974 535 c-8 -20 4 -35 27 -35 14 0 19 7 19 25 0 18 -5 25 -20 25
-11 0 -23 -7 -26 -15z"/>
<path d="M2562 528 c2 -15 10 -23 23 -23 13 0 21 8 23 23 3 18 -1 22 -23 22
-22 0 -26 -4 -23 -22z"/>
<path d="M41 112 c-2 -65 -83 -62 1459 -62 1534 0 1460 -3 1460 59 0 17 -5 31
-10 31 -6 0 -8 -10 -4 -24 3 -13 1 -27 -5 -30 -15 -10 -2873 -8 -2882 2 -4 4
-9 18 -12 32 -3 21 -5 19 -6 -8z"/>
<path d="M90 134 c0 -3 5 -14 10 -25 11 -19 12 -19 40 -2 41 24 38 33 -10 33
-22 0 -40 -3 -40 -6z"/>
<path d="M2770 133 c-9 -4 8 -12 39 -19 55 -12 107 -2 95 17 -6 10 -110 11
-134 2z"/>
</g>
</svg>
