<?xml version="1.0" standalone="no"?>
<!DOCTYPE svg PUBLIC "-//W3C//DTD SVG 20010904//EN"
 "http://www.w3.org/TR/2001/REC-SVG-20010904/DTD/svg10.dtd">
<svg version="1.0" xmlns="http://www.w3.org/2000/svg"
 width="300.000000pt" height="167.000000pt" viewBox="0 0 300.000000 167.000000"
 preserveAspectRatio="xMidYMid meet">
<metadata>
Created by potrace 1.10, written by Peter Selinger 2001-2011
</metadata>
<g transform="translate(-6.000000,167.000000) scale(0.100000,-0.100000)"
fill="#000000" stroke="none">
<path d="M1213 1514 c-17 -9 -36 -28 -42 -42 -8 -19 -11 -213 -9 -659 l3 -633
28 -27 27 -28 253 -3 c138 -2 267 0 286 3 18 3 44 17 57 30 l24 24 0 641 c0
421 -4 648 -10 661 -24 45 -53 49 -327 49 -213 0 -263 -3 -290 -16z m127 -28
c0 -23 20 -30 33 -12 10 14 31 16 137 14 94 -2 124 -6 123 -15 -5 -21 25 -14
32 7 3 11 14 20 23 20 13 0 13 -2 -4 -15 -17 -13 -16 -14 19 -8 23 3 37 2 37
-5 0 -6 -8 -11 -17 -11 -46 -2 -48 -4 -48 -48 0 -31 -3 -42 -12 -39 -7 3 -23
1 -35 -4 -16 -6 7 -9 77 -9 68 -1 95 2 85 9 -8 5 -23 10 -32 10 -12 0 -15 5
-11 16 3 8 12 13 20 10 8 -3 11 -1 8 5 -4 5 -15 7 -26 4 -11 -4 -19 -2 -19 4
0 6 8 11 18 12 9 0 25 2 34 4 9 2 19 -2 21 -8 9 -25 6 -397 -4 -397 -5 0 -9 7
-9 15 0 8 -7 15 -15 15 -8 0 -15 5 -15 10 0 6 7 13 15 16 9 4 15 18 14 38 l-1
31 -8 -30 c-6 -24 -8 -26 -9 -7 -1 13 -7 22 -17 22 -11 0 -14 -6 -9 -20 5 -16
2 -20 -14 -20 -12 0 -21 -4 -21 -9 0 -13 -54 -11 -62 3 -13 19 -9 38 7 33 8
-4 17 -2 20 4 4 5 11 7 16 4 5 -4 9 -1 9 5 0 7 -7 9 -16 6 -9 -3 -29 -6 -45
-6 -16 0 -29 -5 -29 -11 0 -5 4 -8 9 -5 5 3 11 -3 14 -14 3 -11 1 -20 -4 -20
-5 0 -9 -4 -9 -10 0 -5 14 -10 32 -10 43 0 33 -6 -22 -14 -61 -8 -73 -10 -85
-18 -6 -4 -11 2 -12 13 -1 10 2 19 8 19 5 0 8 16 6 35 -1 19 -7 35 -14 35 -6
0 -13 5 -15 12 -3 7 -7 5 -11 -6 -4 -9 -3 -15 2 -11 14 8 18 -44 7 -82 -6 -20
-14 -29 -22 -26 -8 3 -14 0 -14 -7 0 -8 9 -11 25 -8 14 3 28 1 31 -3 9 -15 24
-10 24 9 0 13 2 14 9 4 4 -8 11 -13 15 -13 24 3 36 -1 36 -14 0 -10 10 -15 28
-15 21 0 24 -2 12 -10 -11 -8 -8 -9 11 -4 15 3 30 1 33 -5 9 -14 -28 -32 -51
-25 -17 5 -17 5 0 -6 28 -18 20 -30 -22 -30 -38 0 -68 19 -43 28 7 2 10 8 6
13 -3 5 4 9 15 9 31 0 35 19 6 26 -17 4 -32 1 -44 -10 -15 -14 -20 -14 -24 -4
-3 7 -6 3 -6 -10 -1 -32 -21 -17 -22 16 -1 24 -2 23 -9 -8 -5 -19 -8 -35 -7
-35 1 -1 13 -7 27 -13 l25 -12 -27 5 c-15 3 -30 1 -33 -5 -4 -6 13 -10 45 -10
28 0 59 -4 68 -9 11 -6 35 -5 64 3 44 11 46 13 27 25 -27 16 -18 26 10 12 17
-10 20 -9 14 5 -4 12 -1 15 17 12 26 -3 40 -28 16 -28 -8 0 -18 -4 -21 -10 -4
-6 7 -10 24 -10 25 0 31 4 31 21 0 22 -22 49 -39 49 -6 0 -11 9 -11 21 0 12
-5 19 -12 16 -7 -2 -12 -10 -10 -16 3 -15 -9 -13 -32 4 -11 8 -14 15 -8 15 7
0 12 8 12 17 0 14 -3 13 -16 -5 -19 -28 -41 -28 -49 -1 -4 11 -5 22 -3 24 3 4
60 8 68 5 3 -1 25 -4 50 -6 25 -3 50 -12 56 -20 14 -18 18 -213 5 -232 -7 -11
-9 -11 -14 1 -9 24 -127 24 -198 0 -30 -10 -132 -1 -106 9 9 4 17 15 17 25 0
13 -3 14 -8 5 -10 -15 -282 -13 -282 3 0 6 50 9 134 8 121 -2 134 0 129 15 -4
10 -8 12 -11 4 -2 -7 -7 -10 -10 -8 -15 9 -112 15 -112 7 0 -5 -8 -7 -17 -5
-10 2 -43 5 -73 7 -52 3 -55 5 -58 32 -9 72 24 133 73 133 53 0 174 14 172 20
-1 4 2 8 8 9 5 1 12 10 16 20 7 17 8 17 8 1 1 -19 26 -25 36 -8 3 6 -1 7 -9 4
-11 -4 -16 0 -16 10 0 9 -5 16 -12 16 -15 0 0 15 15 15 7 1 15 -4 19 -10 5 -6
8 -6 8 2 0 13 -30 33 -49 33 -6 0 -11 -11 -11 -25 0 -27 -26 -35 -48 -13 -9 9
-12 8 -12 -5 0 -23 -30 -22 -31 1 0 13 -2 14 -6 2 -13 -32 -52 -33 -54 -1 -1
9 -4 6 -9 -9 -4 -14 -8 -20 -9 -13 -1 6 -10 9 -21 6 -15 -4 -20 0 -21 13 0 18
-1 18 -9 -1 -6 -15 -9 -6 -9 33 -1 37 -5 54 -16 58 -12 5 -15 25 -15 95 0 49
4 89 9 89 5 0 5 15 1 35 -5 24 -4 38 5 45 9 8 14 8 17 -1 4 -12 82 -18 94 -7
4 4 7 21 8 38 1 29 16 44 16 16z m-26 -5 c9 -14 -17 -27 -54 -27 -25 1 -36 6
-38 19 -3 14 4 17 42 17 25 0 47 -4 50 -9z m-104 -431 c0 -11 7 -20 16 -20 8
0 12 5 9 10 -4 6 12 10 39 10 60 0 59 -16 -1 -23 -27 -2 -56 -8 -65 -12 -15
-6 -18 -2 -18 24 0 17 5 31 10 31 6 0 10 -9 10 -20z m30 -269 c0 -11 39 -24
69 -21 16 1 21 -2 16 -10 -6 -9 -2 -9 13 -1 29 15 37 14 22 -4 -17 -21 -86
-20 -98 1 -11 20 -32 10 -32 -14 0 -14 2 -14 9 -3 11 18 28 7 26 -16 -1 -10
-9 -34 -17 -53 -8 -19 -14 -36 -13 -38 5 -6 45 22 45 31 0 4 -4 5 -10 2 -20
-12 -10 6 18 32 17 17 21 24 10 20 -10 -4 -18 -2 -18 3 0 6 7 10 16 10 18 0
46 -25 37 -34 -4 -3 0 -6 7 -6 11 0 11 -3 2 -12 -18 -18 -14 -32 5 -17 15 12
16 12 10 -3 -3 -10 -2 -18 3 -18 13 0 13 17 -2 58 -11 29 -10 35 5 47 18 13
25 51 7 40 -5 -3 -10 -1 -10 4 0 13 20 14 39 2 8 -5 9 -11 3 -15 -6 -3 -9 -22
-7 -41 2 -19 -1 -35 -7 -35 -5 0 -6 -4 -3 -10 10 -16 14 -130 4 -130 -5 0 -9
13 -9 30 0 22 -4 28 -15 24 -8 -4 -15 -1 -15 5 0 20 -47 36 -65 21 -19 -16
-19 -40 0 -40 8 0 15 -5 15 -12 0 -9 3 -9 12 0 17 17 55 15 55 -3 0 -13 -12
-16 -59 -14 -50 2 -58 5 -53 20 6 19 -10 35 -20 19 -9 -14 22 -68 42 -72 10
-2 28 2 41 10 19 13 23 13 20 1 -2 -8 -10 -17 -18 -21 -12 -5 -12 -7 2 -7 10
-1 22 8 28 19 13 24 35 27 26 4 -5 -14 -4 -15 9 -4 10 8 15 9 15 2 0 -28 -138
-38 -178 -13 -7 4 -12 50 -13 121 -1 65 -6 118 -11 121 -6 4 -7 12 -4 18 8 13
46 15 46 2z m502 -31 c10 0 9 3 -2 11 -12 7 -8 9 14 7 16 -2 32 -9 34 -17 3
-8 0 -11 -6 -7 -6 3 -14 2 -17 -4 -4 -6 -1 -9 7 -8 10 2 14 -22 16 -107 l3
-110 -73 0 c-68 0 -74 2 -85 25 -7 14 -12 18 -12 10 2 -28 -1 -40 -9 -40 -10
0 -7 203 3 220 3 5 10 8 15 5 5 -3 12 1 17 9 10 18 43 25 65 14 9 -4 23 -8 30
-8z m-220 -12 c13 -9 33 -17 43 -19 17 -4 21 -14 23 -59 l3 -56 -69 4 c-41 2
-78 -1 -91 -7 -20 -11 -21 -10 -21 34 0 29 4 45 13 45 8 0 7 4 -3 10 -8 5 -12
10 -7 10 4 0 8 -1 10 -2 1 -1 12 4 24 10 14 8 19 18 16 30 -6 23 23 23 59 0z
m31 -144 c57 -10 44 -23 -20 -20 -32 2 -71 0 -88 -4 -29 -7 -28 -8 10 -9 30
-1 36 -4 25 -11 -10 -7 -11 -10 -2 -10 7 0 15 6 17 13 4 8 21 11 50 9 39 -4
45 -7 45 -26 0 -22 -3 -23 -81 -21 -64 2 -84 6 -91 19 -28 49 33 76 135 60z
m-163 -153 c0 -44 -2 -49 -20 -44 -11 3 -20 0 -20 -6 0 -6 -15 -2 -35 9 -29
16 -35 17 -35 4 0 -10 -8 -14 -27 -12 -22 2 -28 -1 -29 -19 l-1 -22 40 21 c38
19 42 19 74 4 19 -9 38 -14 42 -12 4 3 8 -7 9 -21 2 -26 2 -26 -20 -7 -13 12
-18 13 -13 4 15 -24 15 -42 0 -36 -17 6 -30 -10 -15 -19 6 -4 20 1 30 10 10 9
20 12 23 8 13 -21 -14 -30 -95 -30 l-86 -1 -1 109 -1 109 90 0 90 0 0 -49z
m200 -61 l0 -109 -90 1 -90 1 0 108 0 109 90 0 90 0 0 -110z m200 64 c0 -27
-4 -43 -10 -39 -5 3 -10 2 -10 -4 0 -5 5 -13 10 -16 6 -3 10 -31 10 -61 l0
-54 -96 0 c-84 0 -95 2 -90 16 3 9 6 19 6 24 0 4 33 6 74 5 41 -1 80 2 88 6 9
6 3 9 -17 10 -16 1 -33 1 -37 0 -5 0 -8 20 -8 45 0 41 2 46 20 41 10 -3 26 1
35 7 15 11 15 13 1 25 -25 21 -89 25 -123 7 -30 -15 -31 -15 -36 9 l-4 25 93
0 94 0 0 -46z m-92 -70 c-2 -22 -7 -39 -13 -39 -12 0 -19 60 -10 83 10 28 27
-3 23 -44z m-67 29 c1 -17 2 -17 6 0 9 34 23 16 22 -30 0 -36 -3 -43 -9 -28
-6 15 -9 16 -9 4 -1 -9 -8 -16 -16 -16 -11 0 -15 12 -15 44 0 40 19 63 21 26z
m168 -209 c-23 -45 -145 -61 -171 -23 -12 19 -23 21 -120 21 -105 0 -155 -12
-142 -34 12 -18 -124 -3 -145 17 -23 20 -31 48 -20 66 6 11 9 10 14 -3 4 -9
14 -19 22 -22 13 -5 14 -4 4 8 -9 11 -9 16 0 21 6 4 14 3 18 -2 7 -11 82 -10
100 1 6 4 17 4 23 -1 7 -4 29 -7 49 -8 20 0 44 -7 55 -15 17 -14 18 -14 6 2
-9 11 -10 18 -2 23 16 10 30 -4 23 -23 -6 -15 -5 -15 12 1 13 14 26 17 52 12
20 -3 33 -2 33 5 0 5 9 10 20 10 25 0 26 -25 3 -39 -10 -6 -13 -11 -6 -11 6 0
18 9 26 21 13 17 24 20 71 18 35 -2 61 2 69 10 18 18 23 -25 6 -55z m-179 -34
c0 -6 -47 -10 -121 -10 -77 0 -118 4 -114 10 4 6 55 10 121 10 69 0 114 -4
114 -10z"/>
<path d="M1245 1370 c-4 -6 29 -10 92 -11 73 0 92 -3 74 -10 -21 -8 -23 -14
-18 -54 l7 -45 -58 -1 c-31 -1 -60 -1 -64 0 -5 0 -8 -6 -8 -15 0 -13 28 -15
237 -13 234 2 274 -4 218 -29 -27 -12 -32 -27 -13 -38 7 -5 8 -3 3 6 -4 7 -2
16 6 21 21 13 29 11 29 -7 0 -8 -4 -12 -10 -9 -5 3 -10 1 -10 -4 0 -18 24 -12
37 8 9 15 8 23 -3 40 -9 12 -11 21 -5 21 6 0 11 5 11 10 0 6 -41 10 -102 10
-97 0 -100 1 -85 18 20 22 22 55 4 70 -7 6 -30 12 -52 15 l-40 4 45 2 c38 3
41 4 20 11 -37 12 -308 12 -315 0z m210 -42 c6 1 36 3 68 5 l57 3 0 -33 0 -33
-85 2 -85 3 0 34 c0 28 3 32 18 26 9 -4 22 -7 27 -7z"/>
<path d="M1665 1330 c-19 -8 -19 -9 -1 -9 13 -1 17 -6 13 -20 -6 -25 7 -29 68
-21 28 4 38 8 23 9 -33 1 -28 30 6 32 11 1 3 5 -19 10 -50 10 -65 10 -90 -1z
m59 -31 c-8 -14 -34 -11 -34 4 0 8 3 17 7 20 9 9 34 -13 27 -24z"/>
<path d="M1407 1190 c-3 -13 0 -23 9 -27 20 -8 17 -21 -7 -28 -13 -5 -25 -2
-31 6 -8 11 -9 11 -5 -1 2 -8 13 -16 25 -18 12 -2 22 -8 22 -13 0 -5 5 -9 11
-9 6 0 9 7 5 15 -3 8 2 21 10 30 14 13 14 15 0 15 -22 0 -30 19 -11 26 9 4 24
-1 35 -11 10 -9 24 -14 29 -10 19 11 12 23 -16 28 -16 3 -38 8 -49 12 -16 5
-23 2 -27 -15z"/>
<path d="M1330 1190 c0 -5 -17 -7 -39 -4 -37 5 -38 5 -37 -24 1 -19 5 -28 14
-25 6 3 12 -2 12 -11 0 -13 4 -14 26 -4 20 9 27 9 33 -1 6 -9 11 -10 15 -2 4
6 4 16 0 22 -3 6 -1 15 6 19 11 7 10 11 -3 24 -18 18 -27 20 -27 6z"/>
<path d="M1535 1190 c-19 -8 -19 -9 2 -9 12 -1 24 -7 26 -13 4 -10 6 -10 6 0
1 6 8 12 17 12 8 0 12 5 9 10 -7 12 -32 12 -60 0z"/>
<path d="M1576 1154 c-12 -32 -7 -84 10 -84 8 0 12 5 9 10 -3 6 1 10 9 10 23
0 19 17 -5 23 -17 5 -20 11 -15 31 7 29 2 35 -8 10z"/>
<path d="M1387 1006 c-4 -9 -4 -23 -1 -31 9 -23 -85 -16 -100 7 -6 10 -17 18
-24 18 -7 0 -10 -4 -7 -10 3 -5 -4 -11 -17 -11 -19 -1 -17 -3 7 -8 20 -5 30
-12 29 -24 -1 -12 4 -16 15 -13 48 14 80 16 85 7 9 -13 -55 -31 -70 -20 -7 6
-18 1 -29 -11 -18 -20 -17 -20 16 -21 33 -1 93 -1 152 0 20 1 30 8 38 28 6 18
6 28 0 33 -6 3 -8 18 -6 33 6 30 -2 34 -31 12 -18 -14 -18 -14 6 -15 24 -1 24
-1 6 -15 -11 -8 -29 -15 -40 -14 -12 0 -15 3 -8 6 18 7 15 23 -5 23 -12 0 -14
3 -6 8 7 4 9 13 4 21 -7 10 -9 9 -14 -3z m83 -87 c0 -5 -3 -9 -7 -10 -67 -7
-83 -7 -83 2 0 5 10 13 22 18 25 9 68 3 68 -10z"/>
<path d="M1223 953 c-7 -2 -13 -18 -13 -33 0 -22 4 -28 19 -27 15 1 17 4 9 14
-8 10 -6 13 6 13 9 0 16 8 16 20 0 19 -12 24 -37 13z"/>
<path d="M1645 658 c2 -10 -1 -21 -6 -24 -5 -3 -10 5 -10 18 -1 18 -2 19 -6 5
-3 -10 3 -29 12 -43 9 -14 14 -32 11 -39 -2 -7 4 -15 15 -18 12 -3 19 0 19 9
0 8 -4 14 -10 14 -5 0 -10 5 -10 10 0 18 22 10 27 -10 4 -15 11 -18 28 -14 19
5 23 2 21 -13 -2 -10 -1 -12 1 -5 3 7 8 10 11 8 4 -2 14 3 22 12 13 14 13 15
-1 10 -12 -5 -15 2 -14 31 0 30 -4 37 -22 39 -13 2 -23 8 -23 13 0 5 -5 9 -11
9 -5 0 -7 -4 -4 -10 3 -6 -5 -10 -19 -10 -13 0 -26 6 -29 13 -2 6 -3 4 -2 -5z
m72 -48 c-3 -11 -1 -18 3 -15 5 3 11 1 15 -5 8 -13 -11 -13 -36 0 -26 14 -24
40 2 40 16 0 20 -5 16 -20z"/>
<path d="M1487 684 c4 -11 1 -15 -13 -12 -11 2 -19 -3 -18 -9 1 -7 2 -20 3
-28 1 -11 13 -15 46 -15 54 0 58 14 14 53 -36 31 -41 33 -32 11z m31 -36 c3
-14 -3 -17 -22 -16 -14 1 -23 4 -21 7 3 2 1 9 -5 16 -6 8 -1 11 18 10 17 0 28
-6 30 -17z"/>
<path d="M1256 435 c-3 -8 -1 -15 4 -15 6 0 10 5 10 10 0 12 22 9 32 -5 5 -6
8 -4 9 5 0 10 3 8 9 -5 8 -19 9 -19 9 -1 1 19 1 19 23 0 14 -12 18 -13 10 -3
-6 9 -9 19 -5 22 3 4 -16 7 -44 7 -36 0 -53 -4 -57 -15z"/>
<path d="M1280 336 c0 -15 52 -15 57 0 2 6 -9 11 -27 12 -17 0 -30 -4 -30 -12z"/>
<path d="M1230 306 c0 -16 27 -29 41 -20 15 9 0 24 -18 17 -11 -4 -14 -3 -9 5
4 7 2 12 -3 12 -6 0 -11 -6 -11 -14z"/>
<path d="M1459 412 c-27 -23 -30 -75 -6 -99 23 -24 86 -22 103 2 23 31 17 71
-12 94 -33 26 -55 26 -85 3z m76 -22 c9 -15 -15 -42 -31 -36 -7 3 -15 0 -18
-7 -2 -7 -5 3 -5 21 -1 28 2 32 23 32 14 0 28 -5 31 -10z"/>
</g>
</svg>
