<?xml version="1.0" standalone="no"?>
<!DOCTYPE svg PUBLIC "-//W3C//DTD SVG 20010904//EN"
 "http://www.w3.org/TR/2001/REC-SVG-20010904/DTD/svg10.dtd">
<svg version="1.0" xmlns="http://www.w3.org/2000/svg"
 width="300.000000pt" height="171.000000pt" viewBox="0 0 300.000000 171.000000"
 preserveAspectRatio="xMidYMid meet">
<metadata>
Created by potrace 1.10, written by Peter Selinger 2001-2011
</metadata>
<g transform="translate(0.000000,171.000000) scale(0.100000,-0.100000)"
fill="#000000" stroke="none">
<path d="M1224 1602 c-25 -5 -64 -41 -76 -72 -7 -16 -10 -255 -9 -668 1 -713
-1 -690 66 -718 52 -22 554 -20 596 2 60 30 59 22 59 723 0 358 -4 649 -9 663
-5 12 -21 34 -35 47 l-26 25 -273 0 c-151 1 -282 -1 -293 -2z m146 -47 c0 -12
-17 -15 -92 -15 -83 0 -90 1 -72 15 27 21 164 21 164 0z m410 6 c0 -5 8 -12
18 -14 9 -3 -25 -5 -75 -6 -77 -1 -93 2 -93 14 0 12 15 15 75 15 41 0 75 -4
75 -9z m-228 -35 c-2 -12 3 -16 15 -14 14 2 18 -4 18 -30 l1 -33 -83 2 -83 2
0 27 c0 25 4 28 33 28 78 -1 85 1 80 23 -4 16 -2 20 8 17 8 -3 13 -13 11 -22z
m-149 -39 c-9 -44 15 -57 102 -57 59 0 75 4 90 20 15 16 16 25 7 44 -9 20 -8
25 8 29 10 3 22 1 27 -4 5 -5 24 -11 41 -13 18 -2 34 -5 35 -7 2 -2 8 -17 15
-32 10 -24 17 -28 44 -25 17 2 33 9 36 16 3 11 0 11 -16 1 -27 -17 -54 -5 -50
23 2 17 11 24 31 26 17 2 27 -1 28 -10 0 -7 5 -4 10 7 9 18 9 18 5 -3 -2 -13
-1 -36 4 -51 4 -16 4 -35 -1 -42 -6 -10 -9 -11 -9 -1 0 9 -53 12 -230 12 -135
0 -230 -4 -230 -9 0 -5 -8 -12 -17 -14 -16 -4 425 -12 455 -8 6 1 12 -9 13
-24 0 -14 1 -40 1 -57 1 -33 -19 -78 -35 -78 -4 0 -5 5 -2 10 4 6 -12 9 -42 9
l-48 -2 40 -6 c30 -5 36 -8 22 -14 -10 -4 -31 -7 -47 -7 -41 0 -60 -10 -60
-30 0 -13 6 -16 25 -12 14 2 25 8 25 13 0 5 11 9 25 9 14 0 25 5 25 10 0 6 19
9 43 9 l42 -2 -40 -7 -40 -7 37 -2 37 -1 0 -47 c0 -27 3 -88 7 -136 l6 -88
-24 13 c-52 32 -155 22 -239 -22 -10 -5 -21 -4 -26 1 -6 6 -37 11 -69 11 -40
1 -50 3 -30 7 16 3 34 14 40 24 20 33 -15 46 -123 46 -54 0 -105 3 -113 6 -9
4 -26 2 -37 -4 -20 -11 -20 -8 -23 211 -2 123 -1 240 1 261 3 37 4 38 35 31
42 -10 137 -7 149 5 5 5 17 6 27 4 15 -4 18 -11 13 -36z m-163 -507 c0 -13 -7
-20 -20 -20 -13 0 -20 7 -20 20 0 13 7 20 20 20 13 0 20 -7 20 -20z m227 -2
c-2 -9 -24 -12 -68 -11 -35 0 -83 2 -106 2 -24 1 -43 6 -43 11 0 6 44 10 111
10 84 0 110 -3 106 -12z m-239 -60 c7 -7 12 -8 12 -2 0 5 22 9 50 9 27 0 50
-4 50 -10 0 -5 4 -4 9 4 6 9 16 11 27 6 18 -7 18 -8 -1 -15 -17 -7 -17 -9 -2
-9 13 -1 17 -10 17 -40 0 -22 -6 -42 -12 -45 -10 -5 -10 -7 0 -12 18 -9 16
-84 -3 -84 -8 0 -15 5 -15 12 0 9 -3 9 -12 0 -16 -16 -55 -15 -61 1 -4 8 -6 7
-6 -3 0 -8 4 -22 9 -30 6 -10 10 -11 10 -2 0 6 8 12 19 12 13 0 18 -6 16 -22
-1 -13 0 -15 2 -5 2 9 9 15 14 12 5 -4 9 -1 9 4 0 6 7 11 15 11 10 0 15 -10
15 -31 0 -16 -4 -28 -9 -24 -5 3 -12 1 -15 -4 -3 -5 -21 -6 -40 -1 -18 4 -40
3 -49 -1 -9 -6 -18 -5 -22 1 -4 6 -15 2 -27 -10 -17 -16 -19 -22 -8 -35 7 -9
8 -15 2 -15 -5 0 -8 -8 -5 -19 3 -12 11 -17 23 -14 15 4 18 12 14 37 -3 17 -2
26 3 20 4 -6 15 -11 23 -11 25 -1 90 -40 82 -49 -4 -5 1 -2 11 5 17 14 18 9
16 -97 l-1 -111 -88 2 c-81 2 -112 -4 -98 -18 19 -20 153 -24 186 -6 17 9 27
9 44 0 15 -8 52 -10 112 -6 50 3 112 1 139 -5 35 -7 52 -7 60 1 6 6 21 11 34
11 13 0 23 5 23 10 0 11 -5 11 -112 13 -62 1 -67 3 -71 25 -9 47 1 59 49 60
56 2 58 -16 2 -21 -24 -2 -5 -4 42 -4 47 0 68 2 48 4 -49 5 -49 23 -1 23 55 0
34 9 -34 15 -34 3 -73 1 -87 -4 -24 -10 -25 -9 -20 32 2 23 4 50 5 60 0 9 4
15 9 12 4 -3 16 -2 25 1 12 5 15 14 10 38 -5 22 -3 27 4 16 5 -8 13 -11 17 -7
4 4 19 0 33 -10 14 -9 39 -19 55 -23 l30 -6 -1 -102 c-1 -56 3 -104 8 -107 5
-4 9 -24 9 -47 0 -35 -2 -39 -15 -28 -11 9 -90 12 -299 13 -265 1 -286 0 -305
-17 -21 -19 -21 -19 -21 23 0 23 6 48 13 55 15 15 12 240 -4 231 -5 -4 -9 14
-9 40 0 28 4 44 10 40 12 -7 11 -11 11 128 -1 69 3 106 9 102 6 -3 10 -1 10 4
0 6 -4 11 -10 11 -5 0 -10 5 -10 10 0 14 13 13 28 -2z m410 0 c7 -7 12 -8 12
-2 0 15 92 12 108 -3 7 -7 18 -13 25 -13 6 0 2 7 -9 15 -19 16 -19 16 1 13 28
-5 42 -95 17 -114 -14 -11 -14 -13 -2 -14 12 0 15 -16 16 -76 1 -60 -2 -74
-12 -70 -8 3 -14 1 -14 -4 0 -12 -64 0 -69 12 -1 5 -9 1 -17 -9 -12 -16 -15
-16 -25 -3 -8 11 -12 12 -16 3 -7 -18 -26 -16 -20 1 4 10 1 13 -9 9 -15 -6
-20 12 -5 21 5 4 5 23 -2 47 -6 27 -7 43 0 48 5 3 8 17 6 31 -9 55 -8 85 2 92
6 5 6 8 -2 8 -7 0 -13 5 -13 10 0 14 13 13 28 -2z m-168 -9 c0 -5 5 -7 10 -4
6 3 24 -3 40 -15 26 -19 41 -25 70 -29 3 -1 6 -33 8 -71 l3 -70 -93 -2 -93 -2
93 -3 c90 -4 93 -5 90 -26 -3 -25 -48 -35 -135 -29 l-51 4 0 100 c-1 72 3 98
11 95 7 -2 20 0 30 5 13 7 15 13 7 28 -13 24 -13 30 0 30 6 0 10 -5 10 -11z
m-30 -293 c0 11 146 12 156 1 4 -4 0 -7 -9 -7 -9 0 -17 -4 -17 -10 0 -6 5 -9
12 -8 7 2 13 -14 15 -42 2 -33 0 -40 -7 -25 -8 18 -9 18 -9 -6 -1 -25 -2 -25
-67 -22 -61 2 -65 1 -53 -14 12 -15 12 -16 -4 -10 -11 4 -23 4 -29 1 -14 -9
21 -44 38 -37 27 10 14 -13 -13 -25 -22 -9 -23 -11 -5 -8 17 3 22 -1 23 -17 1
-17 3 -14 9 8 4 17 5 42 2 58 -4 22 -1 27 16 27 11 0 22 -8 26 -17 3 -10 9
-24 12 -32 5 -10 1 -13 -15 -8 -24 6 -38 -10 -22 -26 8 -8 11 -8 11 1 0 15 36
16 46 1 5 -8 9 -8 14 1 4 7 13 9 19 6 15 -10 14 -56 -1 -57 -7 0 -28 -2 -45
-5 -20 -2 -33 1 -33 7 0 8 -5 7 -15 -1 -12 -10 -19 -10 -27 -2 -8 8 -15 9 -25
1 -10 -9 -13 -7 -13 5 0 10 -3 15 -8 12 -4 -2 -8 49 -9 115 -1 90 1 118 10
113 7 -3 4 1 -5 9 -10 8 -15 17 -11 20 3 4 12 2 20 -4 7 -6 13 -8 13 -3z m158
-152 c-1 -22 -9 -39 -19 -45 -23 -12 -38 -11 -19 1 13 9 13 11 0 20 -10 6 -11
10 -2 10 6 0 12 6 12 13 0 12 19 37 27 37 2 0 3 -16 1 -36z m210 -234 c6 -59
0 -60 -304 -60 -150 0 -279 3 -288 6 -11 4 -16 19 -16 45 l0 39 288 3 c158 1
294 2 302 2 10 0 16 -12 18 -35z"/>
<path d="M1439 1476 c5 -6 31 -10 61 -7 65 4 61 9 -13 14 -41 3 -54 1 -48 -7z"/>
<path d="M1452 1363 c-6 -3 -10 -9 -6 -14 8 -13 -23 -11 -46 4 -17 10 -22 9
-31 -3 -8 -11 -12 -12 -16 -2 -7 18 -73 16 -73 -3 0 -18 0 -18 108 -16 51 1
82 -2 82 -9 0 -5 -22 -10 -50 -11 -173 -3 -194 -2 -198 9 -2 7 6 12 17 12 12
0 21 4 21 9 0 4 -12 6 -26 3 -20 -4 -24 -9 -20 -26 3 -11 6 -23 6 -26 0 -3 56
-4 125 -2 83 2 125 -1 125 -7 0 -10 -111 -16 -212 -11 -32 1 -36 -1 -31 -18 4
-17 10 -19 33 -12 16 5 31 6 34 3 3 -3 55 -6 115 -6 61 -1 111 -5 111 -9 0 -4
-70 -7 -155 -5 -146 2 -155 1 -155 -17 0 -13 3 -16 13 -8 13 11 102 10 113 -1
4 -4 -15 -7 -43 -7 -32 0 -55 -5 -63 -15 -10 -12 -8 -13 12 -9 12 2 58 7 101
10 64 4 78 2 83 -11 8 -19 24 -20 24 0 0 14 -34 28 -61 25 -25 -4 -42 0 -35 8
11 11 130 9 138 -3 5 -6 8 -5 8 3 0 6 7 12 15 12 9 0 15 9 15 25 0 14 -5 25
-10 25 -7 0 -7 6 0 19 11 21 -3 40 -15 21 -9 -14 -25 -3 -25 17 0 11 7 14 28
9 20 -5 23 -4 12 4 -8 5 -23 10 -32 10 -9 0 -18 6 -20 13 -2 8 -9 12 -16 10z"/>
<path d="M1633 1281 c1 -28 7 -46 16 -49 9 -3 12 0 9 9 -7 18 39 43 46 25 2
-6 5 -1 5 12 1 14 7 22 19 22 9 0 24 5 32 11 11 7 2 9 -34 5 -48 -5 -76 -16
-42 -16 9 0 14 -4 11 -10 -11 -18 -42 -11 -53 13 -10 19 -11 16 -9 -22z"/>
<path d="M1579 1303 c0 -5 -2 -26 -5 -48 l-4 -40 20 24 c12 13 18 31 15 38 -3
8 -5 19 -5 24 0 11 -20 12 -21 2z"/>
<path d="M1583 1213 c-15 -5 -18 -33 -4 -33 5 0 11 6 14 13 2 6 2 2 0 -10 -2
-14 2 -23 10 -23 7 0 14 13 15 28 2 28 -7 34 -35 25z"/>
<path d="M1688 1144 c-5 -5 -25 -10 -49 -13 -3 -1 -11 -12 -17 -25 -8 -18 -7
-27 6 -40 15 -15 7 -16 -103 -16 -65 0 -116 -3 -112 -6 3 -4 59 -8 124 -9 187
-5 213 -5 236 5 l22 9 -23 0 c-13 1 -21 5 -17 10 3 6 -3 15 -14 20 -25 14 -42
14 -18 0 31 -18 18 -30 -30 -27 -47 3 -48 4 -48 35 0 24 3 29 12 21 16 -13 47
-2 37 13 -3 6 0 15 7 20 8 5 9 9 3 9 -6 0 -13 -3 -16 -6z"/>
<path d="M1504 1115 c-12 -9 -30 -12 -53 -8 -24 4 -32 2 -29 -7 2 -7 26 -12
61 -13 54 -2 69 4 47 18 -6 4 -8 11 -5 16 9 13 2 11 -21 -6z"/>
<path d="M1334 874 c15 -14 31 -23 34 -20 8 9 -17 33 -41 39 -20 5 -19 3 7
-19z"/>
<path d="M1303 848 c2 -7 10 -12 16 -10 7 1 10 -2 6 -8 -3 -5 -1 -10 5 -10 19
0 6 34 -14 38 -12 3 -17 -1 -13 -10z"/>
<path d="M1231 777 c-5 -13 -4 -25 2 -28 5 -4 7 -19 3 -35 -6 -24 -5 -27 5
-16 11 10 16 8 26 -10 l12 -23 1 22 c0 12 -8 27 -17 33 -13 8 -14 13 -5 16 6
3 12 14 12 25 0 14 7 19 26 19 22 0 26 -4 22 -24 -6 -28 19 -30 34 -2 18 32 3
45 -57 45 -49 0 -57 -3 -64 -22z"/>
<path d="M1277 553 c-4 -6 0 -18 8 -26 8 -9 11 -17 7 -20 -4 -2 -1 -2 6 -1 6
2 12 -3 12 -11 0 -10 -9 -14 -24 -13 -14 1 -22 6 -20 10 3 4 0 8 -5 8 -6 0
-11 5 -11 11 0 5 5 7 12 3 7 -5 8 -3 3 5 -11 19 -25 -1 -19 -27 6 -19 13 -22
60 -22 54 0 75 13 55 33 -9 9 -10 7 -5 -8 7 -17 2 -15 -27 9 -18 16 -37 36
-40 44 -4 10 -8 12 -12 5z"/>
<path d="M1690 542 c0 -16 -5 -22 -17 -20 -10 2 -18 -3 -17 -9 3 -43 3 -43 64
-43 51 0 60 3 60 18 0 11 -3 13 -8 5 -8 -13 -51 19 -70 53 -11 18 -11 18 -12
-4z m28 -35 c18 -12 5 -27 -23 -25 -13 1 -22 4 -20 7 3 2 1 9 -5 16 -11 13 27
15 48 2z"/>
<path d="M1225 450 c-20 -9 -20 -9 0 -10 11 -1 32 -1 48 0 45 3 31 -19 -15
-23 -24 -2 -5 -4 42 -4 47 0 68 2 48 4 -49 5 -49 23 -1 23 55 0 36 7 -37 13
-36 3 -74 2 -85 -3z"/>
<path d="M1665 850 c-11 -17 5 -32 21 -19 8 6 14 15 14 20 0 12 -27 11 -35 -1z"/>
<path d="M1639 778 c-7 -12 -7 -23 -2 -27 14 -9 24 -41 13 -41 -6 0 -10 -4
-10 -9 0 -5 9 -7 19 -4 14 4 21 -1 24 -19 4 -19 5 -18 6 7 1 23 3 27 11 15 6
-10 10 -11 10 -2 0 6 11 12 24 12 13 0 27 -6 29 -12 3 -7 4 3 2 22 -2 22 3 42
13 54 10 11 12 16 5 13 -6 -4 -14 -3 -17 2 -4 5 -31 10 -61 10 -45 0 -57 -4
-66 -21z m68 2 c22 0 25 -4 21 -25 -3 -13 -2 -22 3 -20 4 3 10 1 14 -5 4 -6
-5 -10 -19 -10 -14 0 -26 6 -27 13 0 10 -2 10 -6 0 -6 -15 -33 -17 -33 -3 0 6
5 10 10 10 6 0 10 7 10 15 0 8 -7 15 -15 15 -8 0 -15 5 -15 11 0 6 7 8 16 5 9
-3 27 -6 41 -6z"/>
<path d="M1480 846 c0 -8 9 -20 21 -26 25 -14 20 -35 -9 -36 -12 -1 -19 3 -16
7 3 5 0 9 -5 9 -6 0 -11 7 -11 15 0 11 -5 10 -21 -6 -11 -11 -18 -24 -14 -27
3 -4 10 0 15 8 8 12 10 12 16 -3 4 -12 18 -17 50 -17 54 0 56 12 9 57 -23 22
-35 29 -35 19z"/>
<path d="M1431 751 c-20 -13 7 -17 93 -12 49 2 65 6 51 11 -27 12 -127 12
-144 1z"/>
<path d="M1460 539 c0 -24 23 -21 28 4 2 10 -3 17 -12 17 -10 0 -16 -9 -16
-21z"/>
<path d="M1503 535 c-13 -29 -6 -33 14 -7 8 9 12 11 8 5 -6 -13 7 -18 18 -7 9
9 -3 34 -17 34 -6 0 -16 -11 -23 -25z"/>
</g>
</svg>
