<?xml version="1.0" standalone="no"?>
<!DOCTYPE svg PUBLIC "-//W3C//DTD SVG 20010904//EN"
 "http://www.w3.org/TR/2001/REC-SVG-20010904/DTD/svg10.dtd">
<svg version="1.0" xmlns="http://www.w3.org/2000/svg"
 width="300.000000pt" height="161.000000pt" viewBox="0 0 300.000000 161.000000"
 preserveAspectRatio="xMidYMid meet">
<metadata>
Created by potrace 1.10, written by Peter Selinger 2001-2011
</metadata>
<g transform="translate(0.000000,161.000000) scale(0.050000,-0.050000)"
fill="#000000" stroke="none">
<path d="M681 2907 c-41 -52 -41 -63 -36 -1355 l5 -1302 1360 -10 c748 -5
1808 -8 2355 -5 l995 6 0 1316 0 1316 -46 44 -47 43 -2272 0 -2272 0 -42 -53z
m1251 -110 c36 17 53 15 77 -9 48 -47 41 -50 -119 -46 -107 2 -150 11 -150 29
0 34 60 47 108 23 23 -11 54 -10 84 3z m2708 -37 l0 -60 -251 0 c-260 0 -292
11 -262 90 10 24 58 30 262 30 l251 0 0 -60z m-2920 8 c0 -13 -51 -23 -124
-26 -67 -2 -128 -5 -135 -6 -56 -5 -101 9 -101 34 0 24 33 28 180 25 114 -3
180 -13 180 -27z m1165 13 c85 -3 25 -41 -65 -41 -72 0 -100 8 -100 28 0 19
20 25 65 21 36 -4 81 -7 100 -8z m327 -1 c37 0 68 -9 68 -21 0 -12 -41 -19
-100 -16 -71 3 -100 12 -100 33 0 18 12 24 32 16 17 -7 62 -12 100 -12z m388
-22 c0 -10 -36 -18 -80 -18 -52 0 -80 9 -80 26 0 17 24 23 80 17 44 -4 80 -15
80 -25z m356 4 c5 -14 -29 -22 -94 -22 -70 0 -102 8 -102 26 0 32 185 29 196
-4z m1284 -112 c19 -11 0 -1830 -19 -1830 -10 0 -22 25 -27 55 -7 51 -8 50
-11 -10 -2 -40 7 -65 22 -65 17 -1 15 -7 -5 -20 -26 -16 -26 -22 4 -44 29 -23
49 -163 38 -271 -4 -50 -3622 -35 -3622 15 0 35 -13 40 -110 40 -84 0 -110 7
-110 30 0 16 16 28 35 27 19 -2 80 -1 135 1 l100 5 -75 33 c-58 27 -70 41 -55
64 29 45 25 271 -5 294 -106 82 -185 -17 -118 -148 l39 -76 -41 -75 c-24 -41
-49 -75 -58 -75 -9 0 -7 -23 3 -51 43 -112 47 -110 -293 -105 l-314 6 2 307
c2 169 8 312 14 318 6 7 11 -26 11 -72 0 -45 9 -83 21 -83 11 0 18 32 16 70
-4 53 6 78 39 101 35 25 44 50 42 125 -2 106 -32 231 -36 149 -1 -25 -9 -45
-19 -45 -9 0 -12 -29 -7 -65 5 -36 2 -58 -7 -50 -27 25 -32 153 -8 198 19 34
18 39 -4 26 -21 -13 -21 -9 1 18 25 31 24 36 -15 46 -43 12 -43 15 -43 527 0
283 -6 543 -13 578 l-12 63 2247 -2 c1237 -2 2253 -6 2258 -9z"/>
<path d="M3174 2580 c-12 -46 -54 -54 -54 -10 0 19 -19 30 -50 30 -27 0 -50
-11 -50 -25 0 -18 -56 -25 -215 -25 -122 0 -219 -9 -225 -20 -7 -13 201 -20
595 -20 l605 1 0 -366 0 -365 95 0 c181 -1 185 -13 185 -606 l0 -489 50 -10
c56 -11 56 -9 50 185 -2 60 -12 121 -23 134 -13 16 -13 86 2 210 12 102 24
450 26 774 l5 587 -155 -11 c-143 -9 -155 -7 -155 28 0 27 -14 38 -50 38 -37
0 -50 -11 -50 -40 0 -22 -13 -40 -30 -40 -16 0 -30 12 -30 28 0 42 -83 56 -93
16 -14 -52 -333 -50 -343 1 -9 48 -77 44 -90 -5z m809 -120 c-3 -16 0 -23 8
-15 33 33 70 -27 41 -68 -26 -37 -20 -107 18 -230 8 -24 5 -60 -7 -81 -13 -25
-13 -64 3 -121 20 -76 18 -88 -17 -114 -55 -41 -96 -39 -81 4 10 29 6 28 -21
-5 -29 -36 -31 -36 -20 -3 10 27 2 40 -29 48 -28 7 -38 22 -31 48 5 20 3 41
-4 45 -7 5 -11 38 -10 75 2 37 5 105 5 152 2 72 8 85 43 85 44 0 70 43 52 90
-14 37 -73 17 -73 -25 0 -59 -17 -14 -28 71 l-10 86 84 -6 c62 -4 82 -14 77
-36z"/>
<path d="M3873 2047 c-7 -8 -13 -31 -13 -52 0 -54 64 -37 73 20 6 43 -29 62
-60 32z"/>
<path d="M1240 2561 c-145 -54 -200 -86 -200 -113 0 -27 69 -5 220 72 69 35
73 35 189 -12 73 -30 158 -48 223 -48 119 0 170 -43 117 -101 -19 -21 -30
-109 -36 -302 l-9 -272 111 -10 c166 -13 165 -11 165 -505 l0 -423 55 8 55 8
0 768 0 768 -120 -5 c-110 -4 -120 -1 -115 36 15 118 -444 210 -655 131z m737
-274 c18 -20 32 -48 31 -62 -2 -14 -4 -35 -5 -46 -2 -12 -20 -16 -43 -9 -33
10 -40 4 -40 -39 0 -38 10 -51 40 -51 36 0 40 -13 40 -141 0 -89 -7 -137 -20
-129 -11 7 -20 25 -20 41 0 16 -10 29 -22 29 -12 0 -17 -13 -11 -29 16 -43
-29 -63 -51 -23 -10 18 -28 27 -40 19 -14 -8 -16 -4 -7 12 10 15 5 32 -11 42
-21 13 -21 26 -2 63 19 38 22 246 4 326 -10 41 2 49 61 42 34 -4 77 -24 96
-45z"/>
<path d="M4656 2514 c-68 -27 -90 -74 -34 -74 22 0 35 9 28 20 -7 11 5 20 27
20 22 0 44 -11 50 -25 6 -16 16 -18 26 -5 25 30 86 24 108 -10 10 -17 19 -23
19 -14 0 9 14 3 31 -15 18 -17 44 -31 60 -31 34 0 73 -69 66 -116 -15 -100 49
-201 101 -158 24 20 25 18 6 -19 -18 -34 -17 -45 3 -53 19 -7 27 10 29 58 2
51 -6 68 -32 69 -28 2 -29 4 -4 15 75 34 49 161 -34 168 -42 3 -74 16 -72 28
18 98 -241 195 -378 142z"/>
<path d="M867 2415 c7 -25 13 -52 13 -60 0 -34 180 -16 180 18 0 26 -14 30
-72 21 -60 -10 -74 -6 -82 27 -6 21 -20 39 -31 39 -11 0 -14 -20 -8 -45z"/>
<path d="M1218 2415 c-37 -25 -81 -74 -98 -110 -23 -49 -43 -64 -85 -65 -53 0
-55 -3 -55 -110 0 -161 140 -168 150 -7 1 31 5 79 7 105 6 86 99 176 166 161
35 -7 57 -4 57 9 0 30 55 28 65 -2 5 -15 21 -17 46 -7 38 17 38 17 1 26 -30 7
-32 13 -10 27 18 11 -7 17 -74 18 -73 0 -121 -13 -170 -45z"/>
<path d="M2220 2410 c0 -19 19 -30 50 -30 31 0 50 11 50 30 0 19 -19 30 -50
30 -31 0 -50 -11 -50 -30z"/>
<path d="M2407 2351 c3 -77 8 -88 43 -83 41 7 48 47 21 122 -12 32 -10 34 7
10 18 -26 21 -25 22 5 0 24 -16 35 -48 35 -45 0 -48 -7 -45 -89z"/>
<path d="M2640 2370 c0 -42 9 -50 60 -50 51 0 60 8 60 50 0 42 -9 50 -60 50
-51 0 -60 -8 -60 -50z"/>
<path d="M3120 2370 c0 -42 9 -50 60 -50 51 0 60 8 60 50 0 42 -9 50 -60 50
-51 0 -60 -8 -60 -50z"/>
<path d="M3603 2376 c5 -34 22 -48 64 -52 49 -6 55 -1 50 40 -5 34 -22 48 -64
52 -49 6 -55 1 -50 -40z"/>
<path d="M4490 2391 c-59 -27 -57 -28 60 -27 66 0 104 5 85 10 -19 5 -35 17
-35 27 0 26 -39 22 -110 -10z"/>
<path d="M2820 2360 c0 -27 13 -40 40 -40 27 0 40 13 40 40 0 27 -13 40 -40
40 -27 0 -40 -13 -40 -40z"/>
<path d="M2980 2360 c0 -27 13 -40 40 -40 27 0 40 13 40 40 0 27 -13 40 -40
40 -27 0 -40 -13 -40 -40z"/>
<path d="M3300 2360 c0 -27 13 -40 40 -40 27 0 40 13 40 40 0 27 -13 40 -40
40 -27 0 -40 -13 -40 -40z"/>
<path d="M3460 2360 c0 -27 13 -40 40 -40 27 0 40 13 40 40 0 27 -13 40 -40
40 -27 0 -40 -13 -40 -40z"/>
<path d="M2640 2260 c0 -30 13 -40 53 -40 52 0 52 1 17 40 -20 22 -44 40 -53
40 -9 0 -17 -18 -17 -40z"/>
<path d="M4320 2180 c0 -121 88 -120 93 0 3 72 -2 80 -45 80 -43 0 -48 -9 -48
-80z"/>
<path d="M4480 2230 c0 -18 19 -30 47 -30 28 0 46 12 46 30 0 18 -18 30 -46
30 -28 0 -47 -12 -47 -30z"/>
<path d="M4653 2247 c-39 -40 -12 -147 37 -147 45 0 50 8 50 80 0 77 -43 110
-87 67z"/>
<path d="M4860 2189 c0 -58 7 -71 35 -65 40 7 47 74 11 111 -37 39 -46 30 -46
-46z"/>
<path d="M1260 2130 l0 -110 70 0 70 0 0 110 0 110 -70 0 -70 0 0 -110z"/>
<path d="M1530 2130 l0 -110 75 0 75 0 0 110 0 110 -75 0 -75 0 0 -110z"/>
<path d="M2245 2155 c13 -38 75 -43 75 -6 0 18 -17 31 -42 31 -24 0 -38 -10
-33 -25z"/>
<path d="M2420 2153 c0 -16 -6 -57 -13 -92 -12 -59 -9 -64 35 -58 67 10 86
177 19 177 -22 0 -41 -12 -41 -27z"/>
<path d="M2645 2010 c4 -114 7 -121 52 -92 19 12 21 21 5 31 -37 22 -25 71 18
71 29 0 40 13 40 50 0 42 -9 50 -60 50 -59 0 -59 0 -55 -110z"/>
<path d="M3133 2107 c-37 -38 -11 -87 47 -87 51 0 60 8 60 50 0 49 -70 73
-107 37z"/>
<path d="M3614 2108 c-39 -39 -12 -88 47 -88 53 0 61 7 55 45 -6 44 -72 72
-102 43z"/>
<path d="M2820 2072 c0 -63 23 -94 52 -70 43 35 35 98 -12 98 -22 0 -40 -13
-40 -28z"/>
<path d="M2984 2055 c3 -25 20 -45 36 -45 17 0 33 20 36 45 5 35 -3 45 -36 45
-33 0 -41 -10 -36 -45z"/>
<path d="M3300 2060 c0 -27 13 -40 40 -40 27 0 40 13 40 40 0 27 -13 40 -40
40 -27 0 -40 -13 -40 -40z"/>
<path d="M3460 2060 c0 -27 13 -40 40 -40 27 0 40 13 40 40 0 27 -13 40 -40
40 -27 0 -40 -13 -40 -40z"/>
<path d="M5081 2007 c-1 -52 52 -219 60 -187 16 73 16 101 -1 90 -11 -7 -21 8
-21 34 -3 81 -36 138 -38 63z"/>
<path d="M4320 1940 c0 -67 7 -80 40 -80 33 0 40 13 40 80 0 67 -7 80 -40 80
-33 0 -40 -13 -40 -80z"/>
<path d="M4480 1990 c0 -18 19 -30 47 -30 28 0 46 12 46 30 0 18 -18 30 -46
30 -28 0 -47 -12 -47 -30z"/>
<path d="M4649 1941 c1 -70 6 -79 46 -76 69 6 67 155 -1 155 -41 0 -46 -9 -45
-79z"/>
<path d="M4860 1950 c0 -54 8 -70 35 -68 21 1 25 5 10 11 -14 6 -25 30 -25 54
1 35 4 37 20 13 16 -24 19 -21 20 15 0 27 -12 45 -30 45 -21 0 -30 -21 -30
-70z"/>
<path d="M2240 1890 c0 -17 18 -30 40 -30 22 0 40 13 40 30 0 17 -18 30 -40
30 -22 0 -40 -13 -40 -30z"/>
<path d="M2418 1900 c-2 -11 -3 -33 -3 -50 0 -72 7 -90 35 -90 17 0 30 10 30
21 0 12 -8 16 -18 10 -22 -14 -4 70 23 104 15 18 9 25 -23 25 -23 0 -43 -9
-44 -20z"/>
<path d="M980 1750 c0 -109 1 -110 60 -110 57 0 60 -4 60 -80 0 -76 -3 -80
-60 -80 -60 0 -60 -1 -60 -112 l0 -113 60 9 c54 8 60 4 60 -46 0 -30 5 -69 12
-86 10 -26 -2 -32 -60 -32 l-72 0 0 -111 0 -112 65 7 c63 6 65 8 59 92 -4 48
4 99 17 115 17 20 19 68 8 164 -9 74 -13 149 -9 165 8 35 10 186 4 335 l-4
105 -70 0 -70 0 0 -110z"/>
<path d="M1254 1832 c-33 -86 10 -192 79 -192 l67 0 0 110 0 110 -68 0 c-39 0
-72 -12 -78 -28z"/>
<path d="M1527 1815 c7 -25 13 -74 13 -110 0 -61 4 -65 70 -65 l70 0 0 110 0
110 -82 0 c-76 0 -82 -4 -71 -45z"/>
<path d="M2654 1808 c-42 -42 -13 -108 47 -108 55 0 61 6 55 55 -6 54 -68 86
-102 53z"/>
<path d="M3134 1808 c-42 -42 -13 -108 47 -108 55 0 61 6 55 55 -6 54 -68 86
-102 53z"/>
<path d="M3608 1791 c-20 -51 7 -91 63 -91 45 0 51 7 45 55 -7 63 -88 90 -108
36z"/>
<path d="M4354 1786 c-55 -14 -41 -146 16 -146 36 0 40 10 33 80 -4 44 -9 79
-10 78 -2 -2 -19 -7 -39 -12z"/>
<path d="M4480 1770 c0 -19 19 -30 50 -30 31 0 50 11 50 30 0 19 -19 30 -50
30 -31 0 -50 -11 -50 -30z"/>
<path d="M4862 1720 c-1 -65 4 -82 18 -60 17 27 19 27 20 0 0 -24 4 -25 17 -4
20 32 5 128 -18 114 -8 -6 -20 1 -26 15 -5 14 -10 -15 -11 -65z"/>
<path d="M2820 1740 c0 -27 13 -40 40 -40 27 0 40 13 40 40 0 27 -13 40 -40
40 -27 0 -40 -13 -40 -40z"/>
<path d="M2980 1740 c0 -27 13 -40 40 -40 27 0 40 13 40 40 0 27 -13 40 -40
40 -27 0 -40 -13 -40 -40z"/>
<path d="M3300 1740 c0 -27 13 -40 40 -40 27 0 40 13 40 40 0 27 -13 40 -40
40 -27 0 -40 -13 -40 -40z"/>
<path d="M3460 1740 c0 -27 13 -40 40 -40 27 0 40 13 40 40 0 27 -13 40 -40
40 -27 0 -40 -13 -40 -40z"/>
<path d="M4644 1715 c5 -50 17 -66 51 -71 48 -7 58 15 23 50 -15 15 -15 25 0
35 39 24 23 51 -29 51 -46 0 -51 -7 -45 -65z"/>
<path d="M1870 1720 c-7 -11 -38 -20 -68 -20 l-56 0 2 -505 c2 -564 -7 -527
127 -518 l98 6 5 500 c5 506 -2 557 -69 557 -15 0 -32 -9 -39 -20z m20 -100
c-7 -11 -3 -20 8 -20 11 0 16 -13 10 -28 -6 -16 -2 -45 9 -66 11 -21 13 -72 4
-119 -12 -65 -9 -81 11 -74 32 13 35 -189 4 -228 -11 -13 -16 -64 -11 -114 5
-49 2 -85 -6 -80 -8 5 -20 -4 -26 -20 -6 -16 -29 -27 -52 -26 -42 4 -50 70
-43 395 1 50 2 112 2 138 0 27 14 71 32 98 23 34 26 54 10 70 -15 15 -12 32
11 58 36 39 57 48 37 16z"/>
<path d="M3900 1720 c0 -11 -27 -20 -60 -20 l-60 0 0 -449 c0 -377 5 -448 28
-439 15 6 35 0 43 -14 10 -16 7 -19 -11 -8 -20 12 -23 7 -13 -18 7 -20 13 -48
13 -64 0 -19 24 -28 80 -28 l80 0 2 85 c0 47 3 115 5 152 1 37 -4 71 -12 76
-8 5 -15 -5 -15 -23 0 -20 -9 -27 -25 -18 -19 11 -20 8 -1 -12 18 -20 18 -31
0 -49 -28 -28 -113 -53 -116 -34 -1 7 -6 130 -10 273 -5 143 -9 274 -10 290
-5 134 147 327 157 198 1 -21 -6 -34 -16 -27 -11 6 -19 2 -19 -9 0 -11 9 -25
20 -32 26 -16 -26 -70 -69 -70 -58 0 -40 -109 19 -113 42 -2 50 6 50 55 0 32
8 58 17 58 36 0 46 163 13 213 -31 47 -90 65 -90 27z"/>
<path d="M2274 1666 c-43 -11 -35 -53 13 -62 22 -5 33 7 33 35 0 22 -2 40 -5
39 -3 -2 -21 -7 -41 -12z"/>
<path d="M2652 1648 c-17 -43 -6 -53 49 -45 43 7 44 7 4 43 -37 33 -41 33 -53
2z"/>
<path d="M2990 1660 c-7 -11 -28 -20 -48 -20 -20 0 -94 -30 -164 -66 l-128
-67 -4 -103 c-3 -82 2 -104 27 -104 16 0 27 -11 22 -25 -5 -14 6 -36 23 -49
28 -22 28 -25 -8 -27 -22 -1 -53 -5 -70 -9 -16 -4 -88 -17 -160 -29 -243 -41
-247 -42 -209 -69 31 -23 31 -30 -7 -103 l-40 -79 89 -2 c49 -1 99 -12 112
-25 35 -35 52 -28 41 17 -8 31 -1 40 35 40 25 0 41 5 35 11 -31 31 61 199 112
205 42 5 49 0 39 -27 -9 -24 -5 -32 15 -25 15 6 25 25 22 43 -4 26 11 33 70
33 55 -1 68 -6 47 -19 -26 -16 -25 -21 4 -32 19 -7 30 -21 24 -31 -6 -10 -3
-18 7 -18 10 0 28 -20 40 -45 19 -41 22 -38 25 35 l3 80 18 -90 c10 -49 14
-100 10 -112 -5 -12 2 -22 15 -22 13 -1 48 -8 78 -16 36 -9 55 -7 55 8 0 12
-27 22 -60 22 -57 0 -60 4 -60 82 0 68 6 80 32 70 25 -10 30 -3 23 26 -14 53
100 13 266 -93 125 -79 144 -105 79 -105 -22 0 -40 9 -40 20 0 11 -18 20 -40
20 -22 0 -40 -7 -40 -15 0 -9 -30 -14 -67 -13 l-68 4 29 -58 c36 -71 67 -93
56 -39 -6 32 3 41 39 41 26 0 51 10 55 23 6 16 19 17 47 2 26 -14 52 -15 74
-2 23 12 49 11 77 -4 31 -16 48 -17 64 -1 16 16 11 22 -19 22 -22 0 -105 43
-184 95 -153 101 -179 153 -100 202 28 17 35 32 21 41 -28 17 -8 102 23 102
13 0 10 9 -7 20 -25 16 -23 19 12 20 23 0 47 5 53 12 22 22 -9 68 -46 68 -20
0 -42 17 -48 38 -7 21 -32 43 -55 49 -34 9 -38 17 -19 40 27 31 -60 62 -91 32
-9 -9 -42 -11 -73 -5 -41 8 -49 16 -30 28 18 12 19 17 3 18 -13 0 -29 -9 -36
-20z m170 -180 c108 -108 28 -220 -157 -220 -149 0 -203 33 -203 123 0 95 62
137 200 137 93 0 129 -9 160 -40z m-633 -431 c-35 -100 -83 -108 -152 -22 -49
61 -44 70 40 84 41 7 84 15 95 19 45 15 46 6 17 -81z"/>
<path d="M2880 1380 c0 -11 53 -20 120 -20 67 0 120 9 120 20 0 11 -53 20
-120 20 -67 0 -120 -9 -120 -20z"/>
<path d="M2412 1627 c-5 -13 -2 -49 7 -80 14 -51 17 -53 30 -17 8 22 22 56 32
75 26 48 24 53 -20 50 -22 -2 -44 -14 -49 -28z"/>
<path d="M3312 1537 c9 -15 148 -3 167 15 4 5 -34 7 -85 5 -51 -2 -88 -11 -82
-20z"/>
<path d="M4320 1529 c0 -17 9 -26 20 -19 11 7 20 3 20 -9 0 -11 9 -21 20 -21
11 0 20 18 20 40 0 27 -13 40 -40 40 -23 0 -40 -13 -40 -31z"/>
<path d="M4480 1530 c0 -19 19 -30 50 -30 31 0 50 11 50 30 0 19 -19 30 -50
30 -31 0 -50 -11 -50 -30z"/>
<path d="M4650 1520 c-7 -22 -7 -57 -1 -78 16 -50 91 -32 91 22 0 21 -9 33
-20 26 -11 -7 -20 2 -20 20 0 18 9 27 20 20 11 -7 20 -3 20 9 0 38 -77 22 -90
-19z"/>
<path d="M4870 1543 c-25 -25 -9 -143 20 -143 17 0 30 9 30 20 0 11 -9 20 -20
20 -11 0 -20 9 -20 19 0 11 14 15 30 8 22 -8 30 2 30 38 0 44 -42 67 -70 38z"/>
<path d="M3614 1488 c-38 -39 -13 -91 41 -84 40 4 55 17 55 46 0 40 -67 66
-96 38z"/>
<path d="M1260 1432 c0 -27 -11 -53 -25 -59 -20 -8 -20 -10 0 -11 14 -1 25
-25 25 -53 0 -119 129 -57 136 66 l6 105 -71 0 c-62 0 -71 -6 -71 -48z"/>
<path d="M1540 1370 l0 -110 70 0 70 0 0 110 0 110 -70 0 -70 0 0 -110z"/>
<path d="M3460 1440 c0 -27 13 -40 40 -40 27 0 40 13 40 40 0 27 -13 40 -40
40 -27 0 -40 -13 -40 -40z"/>
<path d="M4253 1387 c-20 -21 -15 -87 7 -87 11 0 20 -33 20 -72 0 -63 -4 -69
-30 -48 -17 14 -30 16 -30 5 0 -12 14 -26 30 -32 18 -7 30 -37 30 -72 0 -64
-17 -76 -55 -38 -17 17 -20 12 -12 -20 7 -23 20 -38 29 -32 10 6 18 3 18 -8 0
-11 -11 -24 -25 -30 -18 -8 -15 -18 10 -39 26 -21 35 -58 35 -141 0 -62 9
-113 20 -113 23 0 27 23 21 125 -4 64 8 87 77 156 79 78 103 143 62 169 -11 7
-20 47 -20 90 0 44 -12 85 -27 94 -15 9 -38 36 -51 61 -22 43 -80 60 -109 32z
m96 -125 c-4 -4 0 -22 10 -41 13 -24 8 -39 -17 -55 -31 -19 -35 -12 -35 64 0
66 5 80 24 63 14 -13 22 -26 18 -31z m3 -219 c-29 -29 -32 -27 -32 19 0 69 47
117 57 57 3 -24 -8 -58 -25 -76z"/>
<path d="M3974 1253 c-8 -53 -6 -111 4 -128 21 -39 39 105 21 178 -9 36 -15
25 -25 -50z"/>
<path d="M4873 1327 c-36 -36 -13 -163 27 -153 50 13 58 126 9 126 -17 0 -26
9 -19 20 14 23 3 27 -17 7z"/>
<path d="M4652 1257 c-13 -69 -6 -88 27 -68 25 16 29 131 4 131 -10 0 -24 -28
-31 -63z"/>
<path d="M1367 1190 c-31 -76 -46 -90 -92 -90 l-55 0 0 -210 0 -210 70 0 69 0
-39 65 c-41 67 -51 192 -21 265 17 40 17 40 34 0 14 -34 18 -30 27 30 6 44 21
70 40 70 17 0 35 26 42 60 9 39 14 46 16 20 3 -38 4 -38 24 -4 15 26 14 44 -3
65 -41 50 -74 32 -112 -61z"/>
<path d="M3455 1154 c13 -49 44 -77 69 -61 31 19 15 61 -32 82 -43 20 -46 18
-37 -21z"/>
<path d="M3614 1188 c-39 -39 -12 -88 47 -88 53 0 61 7 55 45 -6 44 -72 72
-102 43z"/>
<path d="M1614 1165 c-9 -14 -11 -33 -5 -43 6 -10 2 -42 -9 -71 -15 -41 -13
-55 10 -64 17 -6 30 -24 30 -40 0 -16 -9 -24 -20 -17 -11 7 -20 3 -20 -9 0
-58 60 -15 62 44 0 36 4 81 8 100 3 19 -1 35 -10 35 -10 0 -20 20 -24 45 -4
31 -11 37 -22 20z"/>
<path d="M3300 1140 c0 -25 13 -40 37 -40 47 0 63 17 49 52 -16 44 -86 35 -86
-12z"/>
<path d="M3872 1148 c-22 -57 -12 -88 28 -88 31 0 40 13 40 60 0 65 -46 84
-68 28z"/>
<path d="M4875 1066 c-38 -10 -46 -37 -16 -55 10 -7 29 4 41 24 22 33 22 33
12 -2 -7 -20 -12 -40 -12 -45 0 -4 -14 -8 -31 -8 -17 0 -26 -8 -20 -18 25 -41
91 3 91 60 0 32 -7 57 -15 56 -8 -2 -31 -7 -50 -12z"/>
<path d="M2642 952 c15 -15 217 -20 231 -6 7 8 -43 14 -113 14 -70 0 -123 -4
-118 -8z"/>
<path d="M1096 755 c-6 -116 -9 -125 -50 -119 -62 9 -164 -49 -190 -107 -32
-70 -9 -80 72 -30 77 48 200 42 220 -11 14 -36 72 -37 72 -1 0 15 -20 53 -44
83 -35 45 -43 79 -40 183 4 164 -32 166 -40 2z"/>
<path d="M4900 861 c0 -13 -8 -18 -19 -12 -10 6 -23 4 -29 -6 -7 -10 15 -22
48 -27 66 -10 76 6 30 44 -22 19 -30 19 -30 1z"/>
<path d="M5030 840 c-19 -31 8 -60 56 -60 36 1 38 4 14 20 -27 17 -27 19 0 20
27 1 27 3 0 20 -38 25 -55 25 -70 0z"/>
<path d="M2160 804 c0 -19 -14 -55 -31 -80 -34 -47 1 -85 50 -55 27 17 28 171
1 171 -11 0 -20 -16 -20 -36z"/>
<path d="M2260 723 c0 -117 24 -143 133 -143 63 0 86 9 93 35 6 22 10 14 12
-20 7 -176 279 -176 284 0 0 32 6 42 13 25 20 -54 51 -59 329 -60 266 0 276
-2 324 -50 64 -63 140 -64 203 -1 26 26 77 51 112 55 35 3 68 18 72 32 7 19
-5 22 -43 13 -40 -10 -52 -6 -52 19 0 181 -280 206 -370 32 -26 -50 -26 -50
-278 -44 l-252 6 -31 61 c-71 137 -267 136 -339 -3 -22 -42 -43 -59 -63 -52
-17 7 -38 12 -48 12 -10 0 -13 14 -6 30 8 22 2 27 -21 18 -60 -23 -33 42 29
69 72 32 71 34 -26 49 l-75 11 0 -94z m439 -72 c53 -64 -25 -162 -94 -119 -44
28 -55 81 -24 119 31 37 87 37 118 0z m921 -11 c47 -88 -76 -167 -140 -89 -20
23 -21 42 -3 80 28 61 112 67 143 9z"/>
<path d="M73 246 c-40 -40 -9 -107 66 -146 79 -40 110 -40 2860 -40 3114 0
2921 -9 2921 135 0 40 -8 62 -20 55 -11 -7 -20 -34 -20 -61 0 -39 -10 -49 -52
-49 -51 0 -52 1 -20 50 l33 50 -176 -1 -175 -1 80 -44 80 -44 -2668 -5 c-1468
-3 -2673 -1 -2678 5 -6 5 6 28 26 50 36 40 35 40 -64 40 -96 0 -100 -2 -91
-50 8 -41 2 -50 -35 -50 -37 0 -42 8 -32 49 12 47 -10 83 -35 57z"/>
</g>
</svg>
