<?xml version="1.0" standalone="no"?>
<!DOCTYPE svg PUBLIC "-//W3C//DTD SVG 20010904//EN"
 "http://www.w3.org/TR/2001/REC-SVG-20010904/DTD/svg10.dtd">
<svg version="1.0" xmlns="http://www.w3.org/2000/svg"
 width="300.000000pt" height="171.000000pt" viewBox="0 0 300.000000 171.000000"
 preserveAspectRatio="xMidYMid meet">
<metadata>
Created by potrace 1.10, written by Peter Selinger 2001-2011
</metadata>
<g transform="translate(0.000000,171.000000) scale(0.100000,-0.100000)"
fill="#000000" stroke="none">
<path d="M349 1571 l-24 -19 -3 -706 -2 -706 686 0 c649 0 686 -1 680 -17 -6
-17 -5 -17 8 0 12 16 48 17 500 17 l486 0 0 700 0 701 -25 24 -24 25 -1129 0
c-1097 0 -1130 -1 -1153 -19z m2279 -183 l3 -108 -1131 0 -1130 0 0 103 c0 57
3 107 7 110 3 4 511 6 1127 5 l1121 -3 3 -107z m-1135 -138 c607 0 1112 2
1120 6 15 5 16 -46 19 -523 2 -344 0 -531 -7 -535 -5 -4 -515 -8 -1131 -8
-889 0 -1123 3 -1125 13 -8 28 2 1057 10 1052 5 -3 506 -5 1114 -5z m580
-1077 c-315 -2 -831 -2 -1145 0 -315 1 -58 2 572 2 630 0 887 -1 573 -2z"/>
<path d="M2272 1468 c-7 -7 -12 -19 -12 -28 0 -34 22 -40 141 -40 94 0 121 3
133 16 9 8 16 19 16 24 0 5 -7 16 -16 24 -12 13 -39 16 -133 16 -78 0 -121 -4
-129 -12z m108 -29 c0 -5 -18 -9 -40 -9 -22 0 -40 4 -40 9 0 6 18 9 40 9 22 0
40 -4 40 -9z m70 1 c0 -5 -13 -10 -30 -10 -16 0 -30 5 -30 10 0 6 14 10 30 10
17 0 30 -4 30 -10z"/>
<path d="M501 1453 c-1 -22 -31 -34 -31 -13 0 6 -4 10 -10 10 -5 0 -7 -7 -4
-15 4 -8 15 -15 25 -15 21 0 34 21 26 42 -3 7 -6 3 -6 -9z"/>
<path d="M1070 1440 c0 -5 14 -10 30 -10 17 0 30 4 30 8 0 4 -13 9 -30 10 -16
1 -30 -2 -30 -8z"/>
<path d="M1250 1440 c0 -6 20 -10 45 -10 25 0 45 4 45 9 0 5 -20 9 -45 9 -25
1 -45 -3 -45 -8z"/>
<path d="M1430 1439 c0 -5 25 -9 56 -9 33 0 53 4 49 10 -7 12 -105 11 -105 -1z"/>
<path d="M1620 1439 c0 -5 18 -9 40 -9 22 0 40 4 40 9 0 5 -18 9 -40 9 -22 0
-40 -3 -40 -9z"/>
<path d="M1780 1440 c0 -5 14 -10 30 -10 17 0 30 5 30 10 0 6 -13 10 -30 10
-16 0 -30 -4 -30 -10z"/>
<path d="M526 1432 c-3 -5 12 -9 32 -9 20 -1 42 -2 47 -3 21 -5 45 0 45 10 0
12 -117 14 -124 2z"/>
<path d="M746 1134 c-21 -21 -20 -54 2 -70 22 -17 173 -19 190 -2 18 18 15 59
-5 74 -27 20 -167 19 -187 -2z m189 -34 c0 -12 -18 -16 -92 -18 -88 -3 -93 -2
-93 18 0 20 5 21 93 18 74 -2 92 -6 92 -18z"/>
<path d="M1665 1070 c-16 -18 -14 -75 3 -92 14 -14 292 -24 292 -10 0 5 -28 8
-62 6 -76 -3 -120 5 -115 20 2 7 75 13 227 16 192 4 224 7 233 21 8 13 6 21
-5 33 -23 23 -553 29 -573 6z m395 -26 c0 -12 -20 -14 -116 -11 -63 1 -118 -1
-120 -5 -3 -5 -11 -5 -17 -1 -7 4 -40 7 -74 6 -48 -2 -63 1 -63 12 0 11 36 14
195 14 164 0 195 -2 195 -15z m168 -1 c-2 -10 -9 -17 -14 -16 -6 1 -41 3 -77
4 -48 2 -67 6 -67 16 0 10 20 13 81 13 71 0 80 -2 77 -17z m-516 -32 c35 10
43 7 35 -14 -8 -20 -77 -10 -76 12 0 9 3 11 5 4 4 -8 15 -9 36 -2z"/>
<path d="M743 1015 c-10 -7 -12 -20 -8 -38 8 -31 -10 -29 258 -27 121 0 157
-2 157 -12 0 -10 -43 -12 -199 -10 -130 2 -202 -1 -206 -8 -4 -6 24 -10 82
-11 182 -2 226 -4 230 -14 2 -6 -52 -9 -152 -8 -85 0 -158 -3 -161 -8 -5 -9
39 -13 103 -9 23 1 33 -4 36 -17 4 -17 5 -17 6 0 1 15 10 17 66 16 49 -1 65
-6 68 -18 4 -13 5 -13 6 2 2 25 64 23 89 -3 17 -19 29 -20 118 -17 l99 3 -102
2 c-87 2 -103 5 -103 18 0 13 9 15 48 12 26 -1 50 -7 54 -13 5 -6 8 -6 8 2 0
15 80 15 99 -1 12 -8 13 -8 7 2 -5 9 3 12 29 12 20 0 34 4 31 9 -3 4 -20 9
-38 9 -73 0 -88 2 -88 12 0 5 51 9 121 9 66 -1 123 2 126 5 4 3 -1 6 -10 6 -9
0 -17 5 -17 11 0 5 -4 8 -9 4 -10 -5 -124 -9 -228 -6 -31 0 -53 6 -53 12 0 6
16 10 38 9 20 -1 82 -1 137 1 74 1 88 4 55 8 -35 5 -44 10 -42 23 6 36 -32 41
-341 42 -194 1 -305 -3 -314 -9z m117 -26 c0 -5 -27 -9 -60 -9 -53 0 -70 7
-56 21 8 8 116 -3 116 -12z m243 11 c9 0 17 -6 17 -12 0 -10 -23 -12 -87 -11
-49 1 -96 3 -105 3 -10 0 -18 6 -18 13 0 11 10 12 193 7z m131 -1 c-4 -8 -1
-8 12 -2 11 5 35 8 54 7 19 -1 45 -2 58 -3 12 -1 22 -6 22 -11 0 -6 -47 -10
-125 -9 -80 0 -125 4 -125 11 0 6 9 8 20 5 11 -3 20 -1 20 4 0 5 16 9 36 9 23
0 33 -4 28 -11z m36 -100 c0 -5 -29 -9 -65 -9 -36 0 -65 4 -65 9 0 6 29 10 65
10 36 0 65 -4 65 -10z"/>
<path d="M1998 968 c-8 -4 10 -8 41 -8 30 0 51 3 48 6 -10 10 -75 12 -89 2z"/>
<path d="M1971 958 c-1 -16 -15 -18 -153 -18 -108 -1 -148 -4 -136 -11 20 -11
300 -11 443 0 95 8 62 13 -67 11 -66 -1 -77 1 -81 17 -4 16 -5 17 -6 1z"/>
<path d="M1695 902 c10 -11 290 -20 301 -10 3 4 -61 7 -142 7 -81 1 -152 5
-158 8 -7 4 -8 2 -1 -5z"/>
<path d="M1426 879 c6 -11 55 -11 71 -1 7 4 -7 8 -32 8 -24 1 -42 -3 -39 -7z"/>
<path d="M1674 725 c-15 -10 -21 -23 -19 -45 3 -33 22 -63 36 -54 5 3 9 0 9
-6 0 -6 4 -9 9 -6 4 3 72 6 149 7 139 1 141 1 139 22 -2 20 3 22 75 27 84 5
110 19 92 48 -10 15 -36 17 -240 20 -190 2 -233 0 -250 -13z m16 -18 c0 9 23
12 75 12 54 0 75 -4 75 -13 0 -10 -23 -13 -85 -13 -71 0 -85 2 -85 16 0 14 2
14 10 1 6 -9 10 -10 10 -3z m290 0 c0 -11 -14 -14 -62 -13 -85 1 -88 22 -3 25
51 2 65 -1 65 -12z m30 1 c0 9 20 12 75 11 51 -1 75 -5 75 -13 0 -9 -26 -13
-85 -14 -74 -1 -85 2 -85 16 0 15 2 15 10 2 7 -10 10 -11 10 -2z m-250 -46 c0
-9 -14 -12 -45 -11 -41 3 -53 8 -41 20 11 11 86 3 86 -9z m210 1 c0 -12 -83
-21 -115 -13 -5 1 -27 2 -47 1 -24 0 -38 4 -38 12 0 9 27 12 100 12 73 0 100
-3 100 -12z"/>
<path d="M1723 602 c-103 -6 -51 -21 82 -24 74 -2 135 0 135 4 0 4 24 8 53 10
28 2 -9 6 -83 8 -74 3 -159 4 -187 2z"/>
<path d="M1753 553 c26 -2 67 -2 90 0 23 2 2 3 -48 3 -49 0 -68 -1 -42 -3z"/>
<path d="M748 243 c199 -2 525 -2 725 0 199 1 36 2 -363 2 -399 0 -562 -1
-362 -2z"/>
<path d="M41 112 c-2 -65 -83 -62 1459 -62 1534 0 1460 -3 1460 59 0 17 -5 31
-10 31 -6 0 -8 -10 -4 -24 3 -13 1 -27 -5 -30 -15 -10 -2873 -8 -2882 2 -4 4
-9 18 -12 32 -3 21 -5 19 -6 -8z"/>
<path d="M90 132 c0 -5 6 -16 14 -27 13 -18 14 -18 39 1 36 26 33 34 -13 34
-22 0 -40 -4 -40 -8z"/>
<path d="M2765 132 c-13 -3 1 -9 40 -17 59 -12 111 -4 99 16 -6 10 -106 10
-139 1z"/>
</g>
</svg>
