<?xml version="1.0" standalone="no"?>
<!DOCTYPE svg PUBLIC "-//W3C//DTD SVG 20010904//EN"
 "http://www.w3.org/TR/2001/REC-SVG-20010904/DTD/svg10.dtd">
<svg version="1.0" xmlns="http://www.w3.org/2000/svg"
 width="300.000000pt" height="171.000000pt" viewBox="0 0 300.000000 171.000000"
 preserveAspectRatio="xMidYMid meet">
<metadata>
Created by potrace 1.10, written by Peter Selinger 2001-2011
</metadata>
<g transform="translate(0.000000,171.000000) scale(0.100000,-0.100000)"
fill="#000000" stroke="none">
<path d="M345 1565 l-25 -24 0 -701 0 -700 686 0 c649 0 686 -1 680 -17 -6
-17 -5 -17 8 0 12 16 48 17 500 17 l486 0 0 700 0 701 -25 24 -24 25 -1131 0
-1131 0 -24 -25z m2275 -690 l0 -625 -1120 0 -1120 0 0 625 0 625 1120 0 1120
0 0 -625z m11 -669 c-7 -8 -21 -14 -32 -13 -37 3 -15 22 30 26 11 1 11 -2 2
-13z m-558 -33 c-315 -2 -831 -2 -1145 0 -315 1 -58 2 572 2 630 0 887 -1 573
-2z"/>
<path d="M468 1468 c-9 -23 3 -38 28 -38 19 0 24 5 24 25 0 14 -4 25 -9 25 -5
0 -7 -9 -4 -20 4 -14 0 -20 -12 -20 -12 0 -16 6 -12 20 6 22 -8 28 -15 8z"/>
<path d="M2253 1464 c-3 -9 -2 -24 4 -33 15 -24 261 -24 276 1 8 12 7 21 -2
32 -20 24 -269 24 -278 0z m184 -18 c4 -3 -28 -6 -70 -6 -42 0 -77 4 -77 8 0
9 138 7 147 -2z"/>
<path d="M1254 1448 c-3 -4 19 -8 48 -7 57 1 55 5 -5 11 -21 2 -40 0 -43 -4z"/>
<path d="M1434 1449 c-2 -4 21 -8 52 -8 31 0 54 2 52 4 -8 8 -99 11 -104 4z"/>
<path d="M1620 1449 c0 -5 19 -9 42 -9 23 0 39 3 36 6 -10 9 -78 12 -78 3z"/>
<path d="M594 1439 c-5 -9 26 -16 49 -11 9 2 17 7 17 12 0 9 -60 8 -66 -1z"/>
<path d="M1512 1238 c-19 -19 -17 -541 2 -557 9 -8 151 -10 507 -9 l494 3 3
274 c2 193 -1 278 -9 287 -16 19 -978 21 -997 2z m982 -4 c14 -5 16 -37 16
-246 0 -206 -2 -239 -14 -235 -9 4 -13 1 -10 -7 3 -9 -9 -12 -43 -11 -27 1
-54 4 -61 9 -6 4 -12 2 -12 -3 0 -6 -7 -11 -15 -11 -8 0 -15 3 -15 8 0 4 -48
5 -107 2 -60 -3 -211 -3 -338 0 -126 3 -231 2 -233 -2 -6 -13 -100 -9 -105 5
-4 9 -8 9 -16 -3 -7 -10 -10 62 -11 228 l-1 242 475 0 476 0 3 -177 3 -178 -1
180 0 180 -480 0 -480 0 -5 -225 -6 -225 -2 231 c-1 127 1 234 5 237 8 9 956
9 977 1z m-247 -531 c-137 -2 -357 -2 -490 0 -133 1 -21 2 248 2 270 0 378 -1
242 -2z"/>
<path d="M1753 1026 c-15 -13 -25 -28 -20 -32 4 -4 17 2 30 14 29 28 57 28 86
1 29 -27 24 -66 -12 -93 -26 -19 -30 -19 -55 -5 -15 8 -28 25 -30 37 -2 12
-10 22 -18 22 -21 0 -17 -21 10 -54 32 -41 88 -42 122 -2 32 37 30 71 -5 107
-36 36 -70 37 -108 5z"/>
<path d="M1960 1014 c-11 -12 -10 -18 3 -31 13 -14 19 -14 32 -3 11 9 19 10
27 2 15 -15 38 -3 38 19 0 24 -25 35 -44 20 -10 -8 -16 -9 -21 -1 -9 14 -20
13 -35 -6z"/>
<path d="M2077 1023 c-4 -3 -7 -20 -6 -37 0 -17 3 -25 6 -18 2 6 8 10 13 7 12
-8 33 23 26 40 -6 15 -28 20 -39 8z"/>
<path d="M1901 918 c0 -27 2 -30 9 -13 7 18 8 19 15 3 9 -24 22 -23 30 2 3 11
11 20 16 20 5 0 9 -9 9 -20 0 -19 12 -26 35 -20 6 1 16 3 23 3 6 0 12 9 12 19
0 26 18 22 23 -4 5 -20 5 -20 4 2 -2 29 -37 42 -37 14 0 -17 -1 -17 -14 1 -8
11 -19 16 -30 12 -9 -4 -16 -2 -16 3 0 18 -19 10 -25 -10 -3 -11 -10 -20 -15
-20 -5 0 -12 9 -15 20 -10 31 -25 23 -24 -12z"/>
<path d="M2094 926 c-8 -21 13 -46 32 -39 20 8 13 47 -9 51 -9 2 -20 -4 -23
-12z"/>
<path d="M2157 933 c-10 -10 -8 -43 2 -43 5 0 7 10 4 21 -4 16 -2 20 8 17 21
-7 17 -42 -6 -50 -19 -6 -19 -6 2 -7 13 -1 27 8 33 19 12 22 55 27 63 8 3 -8
6 -6 6 4 1 9 9 22 19 27 15 9 15 10 -5 11 -13 0 -23 -5 -23 -11 0 -8 -5 -8
-15 1 -12 10 -18 10 -29 1 -10 -8 -16 -9 -21 -1 -7 11 -28 13 -38 3z"/>
<path d="M470 1220 c0 -5 4 -10 9 -10 6 0 12 -15 14 -32 l4 -33 1 33 c1 17 7
32 12 32 6 0 10 5 10 10 0 6 -11 10 -25 10 -14 0 -25 -4 -25 -10z"/>
<path d="M530 1190 c0 -22 5 -40 10 -40 6 0 10 12 10 27 0 29 15 22 23 -12 4
-16 5 -15 6 5 1 22 -27 60 -44 60 -3 0 -5 -18 -5 -40z"/>
<path d="M670 1190 c0 -22 5 -40 10 -40 6 0 10 6 10 14 0 8 6 17 13 19 9 4 8
8 -3 16 -13 9 -13 11 3 11 9 0 17 5 17 10 0 6 -11 10 -25 10 -22 0 -25 -4 -25
-40z"/>
<path d="M1057 1223 c-11 -10 -8 -73 3 -73 6 0 10 10 11 23 0 12 2 30 4 40 3
17 -6 23 -18 10z"/>
<path d="M788 1215 c-7 -7 3 -65 12 -65 4 0 7 14 5 30 -2 31 -8 44 -17 35z"/>
<path d="M594 1196 c-13 -35 24 -64 42 -34 5 8 2 9 -9 5 -9 -3 -19 -2 -22 3
-4 6 3 10 15 10 13 0 20 5 18 13 -7 18 -37 21 -44 3z"/>
<path d="M731 1183 c-1 -27 3 -33 19 -33 16 0 20 6 19 33 -1 23 -3 26 -6 10
-2 -13 -8 -23 -13 -23 -5 0 -11 10 -13 23 -3 16 -5 13 -6 -10z"/>
<path d="M823 1185 c2 -23 7 -30 22 -30 14 0 21 8 23 28 2 15 -1 27 -7 27 -6
0 -11 -9 -11 -20 0 -27 -17 -25 -23 3 -4 15 -5 12 -4 -8z"/>
<path d="M881 1177 c2 -30 2 -30 6 -4 5 31 23 37 23 7 0 -25 27 -37 43 -20 10
10 8 12 -5 7 -10 -3 -20 -2 -23 3 -4 6 3 10 15 10 37 0 16 25 -23 27 -36 2
-37 1 -36 -30z"/>
<path d="M994 1196 c-9 -24 4 -48 23 -44 12 2 18 12 18 28 0 29 -32 41 -41 16z"/>
<path d="M470 1068 c1 -39 2 -41 14 -25 14 18 15 18 25 0 8 -14 10 -10 8 22
-2 33 -6 41 -24 43 -21 3 -23 -1 -23 -40z"/>
<path d="M830 1072 c0 -34 3 -39 23 -38 33 2 35 39 3 60 l-26 16 0 -38z"/>
<path d="M1005 1074 c-8 -20 -12 -40 -9 -43 4 -3 9 0 11 7 5 14 33 17 33 3 0
-10 105 -9 116 1 4 4 13 3 20 -3 7 -6 19 -7 25 -3 9 5 7 10 -7 15 -17 7 -17 8
-1 8 21 1 23 19 2 27 -8 3 -24 -5 -37 -19 -19 -20 -27 -23 -42 -15 -10 6 -21
6 -25 2 -14 -20 -40 -11 -46 17 -10 43 -23 44 -40 3z"/>
<path d="M592 1070 c2 -19 8 -35 14 -37 7 -2 10 7 8 24 l-4 28 11 -27 c15 -39
49 -34 48 7 -1 23 -3 25 -6 8 -5 -28 -23 -30 -23 -3 0 11 -4 20 -9 20 -5 0
-17 3 -26 6 -14 6 -16 1 -13 -26z"/>
<path d="M1228 1095 c-7 -7 3 -65 12 -65 4 0 7 14 5 30 -2 31 -8 44 -17 35z"/>
<path d="M534 1076 c-13 -35 24 -64 42 -34 5 8 2 9 -9 5 -9 -3 -19 -2 -22 3
-4 6 3 10 15 10 13 0 20 5 18 13 -7 18 -37 21 -44 3z"/>
<path d="M680 1059 c0 -35 15 -31 22 6 4 17 1 25 -8 25 -9 0 -14 -11 -14 -31z"/>
<path d="M721 1058 c1 -22 3 -26 6 -13 8 32 23 42 23 15 0 -21 5 -25 35 -27
31 -3 35 0 35 22 0 14 -7 28 -15 32 -24 9 -32 -7 -12 -22 12 -8 14 -15 8 -20
-6 -3 -11 -1 -11 5 0 7 -7 10 -15 6 -10 -4 -15 1 -15 14 0 13 -7 20 -20 20
-16 0 -20 -6 -19 -32z"/>
<path d="M916 1074 c-8 -22 17 -49 35 -38 9 5 8 9 -7 15 -18 7 -18 8 -1 8 10
1 17 7 15 14 -7 19 -35 20 -42 1z"/>
<path d="M470 980 c0 -5 4 -10 9 -10 6 0 12 -15 14 -32 l4 -33 1 33 c1 17 7
32 12 32 6 0 10 5 10 10 0 6 -11 10 -25 10 -14 0 -25 -4 -25 -10z"/>
<path d="M670 954 c0 -27 4 -35 14 -31 7 3 19 0 25 -6 8 -8 11 -8 11 0 0 7 -5
15 -10 18 -8 5 -7 12 2 23 11 13 10 15 -4 9 -12 -4 -18 -2 -18 8 0 8 -4 15
-10 15 -5 0 -10 -16 -10 -36z"/>
<path d="M570 960 c0 -6 5 -8 12 -4 7 4 8 3 4 -4 -4 -7 -2 -12 4 -12 6 0 8 -5
4 -11 -4 -8 -9 -7 -15 2 -4 7 -11 10 -14 7 -11 -11 5 -28 26 -28 16 0 20 6 17
27 -3 27 -38 48 -38 23z"/>
<path d="M624 955 c-4 -8 -4 -22 0 -30 6 -17 36 -21 36 -5 0 6 -6 9 -12 8 -7
-2 -13 4 -13 12 0 8 6 14 13 13 6 -2 12 2 12 7 0 16 -30 12 -36 -5z"/>
<path d="M751 938 c1 -21 3 -26 6 -13 7 31 23 42 23 18 0 -12 5 -25 11 -28 7
-5 9 3 7 21 -2 21 -9 30 -25 32 -20 3 -23 -1 -22 -30z"/>
<path d="M817 963 c-14 -13 -7 -43 11 -44 15 0 15 -1 -2 -8 -14 -5 -16 -10 -7
-15 23 -15 41 2 41 39 0 27 -4 35 -18 35 -10 0 -22 -3 -25 -7z"/>
<path d="M470 847 c0 -5 38 -7 85 -5 47 2 86 0 88 -3 1 -3 13 -2 27 2 l25 7
-25 1 c-98 6 -200 5 -200 -2z"/>
<path d="M856 848 c-6 -4 41 -7 104 -6 118 1 111 5 -19 10 -40 2 -78 0 -85 -4z"/>
<path d="M1083 844 c9 -9 87 -10 87 -1 0 4 -21 7 -47 7 -25 0 -44 -3 -40 -6z"/>
<path d="M465 800 c-4 -6 27 -10 84 -10 54 0 91 4 91 10 0 6 -35 10 -84 10
-47 0 -88 -4 -91 -10z"/>
<path d="M650 801 c0 -5 32 -9 70 -10 42 -1 70 3 70 9 0 6 -29 10 -70 10 -38
0 -70 -4 -70 -9z"/>
<path d="M800 800 c0 -5 25 -10 56 -10 34 0 53 4 49 10 -3 6 -28 10 -56 10
-27 0 -49 -4 -49 -10z"/>
<path d="M483 728 c-21 -28 -23 -37 -7 -52 12 -13 39 -16 133 -16 78 0 121 4
129 12 18 18 14 46 -7 58 -29 15 -236 13 -248 -2z m173 -30 c4 -5 -27 -8 -69
-8 -43 0 -77 4 -77 8 0 10 136 10 146 0z"/>
<path d="M481 476 c-16 -19 -11 -46 12 -60 25 -16 52 4 52 40 0 24 -5 30 -26
32 -14 2 -31 -4 -38 -12z"/>
<path d="M1502 478 c-25 -25 -6 -68 29 -68 22 0 31 14 35 51 3 26 0 29 -24 29
-15 0 -33 -5 -40 -12z"/>
<path d="M791 473 c3 -36 17 -46 67 -48 29 -1 52 1 52 4 0 3 -3 16 -6 29 -6
19 -13 22 -60 22 -30 0 -54 -3 -53 -7z"/>
<path d="M1810 449 c0 -15 4 -19 16 -15 9 3 36 6 60 6 25 0 44 5 44 11 0 7
-18 10 -49 7 -27 -1 -47 0 -44 5 2 4 -3 7 -11 7 -10 0 -16 -9 -16 -21z"/>
<path d="M1170 450 c0 -5 18 -10 40 -10 22 0 40 5 40 10 0 6 -18 10 -40 10
-22 0 -40 -4 -40 -10z"/>
<path d="M2480 446 c0 -11 8 -12 34 -6 19 4 37 5 40 2 4 -3 6 0 6 6 0 7 -16
12 -40 12 -28 0 -40 -4 -40 -14z"/>
<path d="M2152 438 c5 -15 59 -22 95 -13 41 10 15 25 -43 25 -40 0 -55 -4 -52
-12z"/>
<path d="M41 112 c-2 -65 -83 -62 1459 -62 1534 0 1460 -3 1460 59 0 17 -5 31
-10 31 -6 0 -8 -10 -4 -24 3 -13 1 -27 -5 -30 -13 -8 -2854 -8 -2875 0 -8 3
-17 18 -19 32 -4 24 -4 23 -6 -6z"/>
<path d="M90 132 c0 -5 6 -17 14 -27 14 -19 15 -19 33 -2 11 9 25 17 32 17 7
0 9 5 6 10 -7 12 -85 14 -85 2z"/>
<path d="M2745 129 c-16 -6 -12 -8 16 -8 20 -1 51 -6 68 -12 25 -9 38 -9 56 1
14 7 22 17 19 22 -7 11 -130 9 -159 -3z"/>
</g>
</svg>
