<?xml version="1.0" standalone="no"?>
<!DOCTYPE svg PUBLIC "-//W3C//DTD SVG 20010904//EN"
 "http://www.w3.org/TR/2001/REC-SVG-20010904/DTD/svg10.dtd">
<svg version="1.0" xmlns="http://www.w3.org/2000/svg"
 width="300.000000pt" height="171.000000pt" viewBox="0 0 300.000000 171.000000"
 preserveAspectRatio="xMidYMid meet">
<metadata>
Created by potrace 1.10, written by Peter Selinger 2001-2011
</metadata>
<g transform="translate(0.000000,171.000000) scale(0.100000,-0.100000)"
fill="#000000" stroke="none">
<path d="M349 1571 l-24 -19 -3 -706 -2 -706 686 0 c649 0 686 -1 680 -17 -6
-17 -5 -17 8 0 12 16 48 17 500 17 l486 0 0 700 0 701 -25 24 -24 25 -1129 0
c-1097 0 -1130 -1 -1153 -19z m2276 -681 l0 -615 -1122 -2 -1123 -2 0 613 c0
337 3 616 7 619 3 4 509 6 1122 5 l1116 -3 0 -615z m15 -671 c0 -10 -8 -20
-17 -23 -35 -11 -2237 -5 -2250 6 -7 6 -13 17 -13 24 0 12 168 14 1140 13
1086 -2 1140 -3 1140 -20z m-567 -46 c-315 -2 -831 -2 -1145 0 -315 1 -58 2
572 2 630 0 887 -1 573 -2z"/>
<path d="M476 1481 c-3 -5 3 -7 14 -4 14 4 20 0 20 -10 0 -20 -16 -31 -25 -17
-3 5 -11 10 -18 10 -7 0 -5 -7 5 -16 22 -22 50 -11 46 18 -3 24 -32 36 -42 19z"/>
<path d="M2259 1469 c-9 -17 -8 -25 4 -36 12 -12 41 -15 136 -15 67 1 126 4
131 7 16 10 12 52 -6 59 -9 3 -69 6 -134 6 -111 0 -120 -1 -131 -21z m191 -18
c0 -5 -34 -10 -75 -10 -42 0 -75 4 -75 9 0 6 34 10 75 10 41 0 75 -4 75 -9z"/>
<path d="M1080 1450 c0 -6 20 -9 45 -8 25 0 45 5 45 10 0 4 -20 8 -45 8 -25 0
-45 -5 -45 -10z"/>
<path d="M1265 1450 c3 -5 24 -10 46 -10 21 0 39 5 39 10 0 6 -21 10 -46 10
-27 0 -43 -4 -39 -10z"/>
<path d="M1480 1450 c0 -5 14 -10 30 -10 17 0 30 5 30 10 0 6 -13 10 -30 10
-16 0 -30 -4 -30 -10z"/>
<path d="M1620 1450 c0 -5 18 -10 40 -10 22 0 40 5 40 10 0 6 -18 10 -40 10
-22 0 -40 -4 -40 -10z"/>
<path d="M1780 1450 c0 -5 14 -10 30 -10 17 0 30 5 30 10 0 6 -13 10 -30 10
-16 0 -30 -4 -30 -10z"/>
<path d="M629 1184 c-9 -11 -10 -20 -2 -32 15 -25 161 -25 176 0 8 12 7 21 -2
32 -19 23 -153 23 -172 0z"/>
<path d="M1363 1193 c75 -2 199 -2 275 0 75 1 13 3 -138 3 -151 0 -213 -2
-137 -3z"/>
<path d="M1953 1193 c75 -2 199 -2 275 0 75 1 13 3 -138 3 -151 0 -213 -2
-137 -3z"/>
<path d="M1790 926 c4 -259 8 -238 12 90 2 109 -1 171 -7 171 -7 0 -8 -91 -5
-261z"/>
<path d="M1262 1123 c2 -10 14 -19 26 -21 19 -3 23 1 20 15 -2 10 -14 19 -26
21 -19 3 -23 -1 -20 -15z"/>
<path d="M1852 1123 c2 -10 10 -18 18 -18 8 0 16 8 18 18 2 12 -3 17 -18 17
-15 0 -20 -5 -18 -17z"/>
<path d="M625 1089 c4 -5 33 -9 66 -9 32 0 59 4 59 9 0 6 -29 10 -65 10 -38 0
-63 -4 -60 -10z"/>
<path d="M760 1090 c0 -10 53 -16 98 -12 56 6 34 19 -33 20 -36 0 -65 -3 -65
-8z"/>
<path d="M900 1090 c0 -5 20 -10 45 -10 25 0 45 5 45 10 0 6 -20 10 -45 10
-25 0 -45 -4 -45 -10z"/>
<path d="M1050 1091 c0 -5 25 -9 55 -10 30 0 55 4 55 9 0 6 -25 10 -55 10 -30
0 -55 -4 -55 -9z"/>
<path d="M620 1049 c0 -5 36 -9 80 -9 49 0 80 4 80 11 0 6 -29 9 -80 8 -44 -1
-80 -6 -80 -10z"/>
<path d="M840 1050 c0 -5 25 -10 55 -10 30 0 55 5 55 10 0 6 -25 10 -55 10
-30 0 -55 -4 -55 -10z"/>
<path d="M1020 1049 c0 -5 27 -9 61 -9 37 0 58 4 54 10 -7 12 -115 11 -115 -1z"/>
<path d="M1265 1040 c-3 -5 -4 -14 -1 -19 8 -12 60 -11 68 3 6 8 8 7 8 -1 0
-7 6 -13 14 -13 8 0 17 6 19 13 4 10 6 10 6 0 1 -20 91 -17 91 2 0 17 -30 17
-42 0 -5 -6 -8 -4 -8 5 0 12 -12 14 -57 12 -32 -2 -64 -9 -72 -15 -12 -10 -14
-9 -8 6 7 18 -7 24 -18 7z"/>
<path d="M1484 1034 c3 -9 6 -19 6 -22 0 -4 5 0 10 8 6 10 10 11 10 3 0 -8 13
-13 30 -13 20 0 30 5 30 15 0 8 -4 15 -10 15 -5 0 -10 -6 -10 -12 0 -10 -2
-10 -8 -1 -4 6 -20 14 -36 17 -22 4 -27 2 -22 -10z"/>
<path d="M1857 1029 c6 -22 7 -22 14 -3 7 16 8 17 8 2 1 -14 10 -18 42 -18 33
0 40 3 37 18 -2 9 -11 15 -19 13 -20 -5 -30 -5 -61 4 -24 6 -26 5 -21 -16z"/>
<path d="M2080 1031 c0 -12 5 -21 10 -21 6 0 10 6 10 13 0 8 3 8 8 2 10 -15
55 -16 64 -2 6 9 8 9 8 0 0 -8 13 -13 29 -13 16 0 32 6 34 13 3 6 6 3 6 -8 1
-17 3 -17 11 -5 15 23 13 26 -21 28 -22 2 -28 -1 -23 -10 6 -11 5 -11 -8 0 -8
7 -35 11 -60 11 -25 -1 -50 1 -56 5 -8 5 -12 0 -12 -13z"/>
<path d="M1980 1026 c0 -16 77 -18 83 -2 4 9 -8 13 -39 14 -28 0 -44 -4 -44
-12z"/>
<path d="M620 1010 c0 -6 43 -10 110 -10 67 0 110 4 110 10 0 6 -43 10 -110
10 -67 0 -110 -4 -110 -10z"/>
<path d="M850 1010 c0 -6 27 -10 60 -10 33 0 60 4 60 10 0 6 -27 10 -60 10
-33 0 -60 -4 -60 -10z"/>
<path d="M1260 973 c0 -9 6 -13 14 -10 8 3 16 3 19 0 9 -8 116 -10 129 -2 7 4
18 3 25 -2 13 -12 33 -4 33 12 0 6 -24 10 -57 9 -32 -1 -60 -1 -63 0 -3 0 -26
2 -52 4 -38 3 -48 0 -48 -11z"/>
<path d="M1492 973 c2 -11 17 -16 60 -17 35 0 54 3 51 9 -3 6 0 4 8 -2 17 -17
29 -16 29 1 0 16 -52 26 -74 14 -9 -5 -16 -5 -16 -1 0 4 -14 9 -31 10 -23 2
-30 -2 -27 -14z"/>
<path d="M1943 982 c-35 -2 -63 -7 -63 -11 0 -12 39 -21 46 -10 3 5 10 9 15 9
6 0 7 -4 4 -10 -3 -5 -1 -10 4 -10 6 0 11 3 11 8 0 8 57 8 66 -1 4 -3 15 -2
25 4 13 7 19 6 19 -1 0 -6 5 -8 10 -5 34 21 -23 32 -137 27z"/>
<path d="M624 485 c0 -82 2 -115 3 -72 2 43 2 110 0 150 -1 40 -3 5 -3 -78z"/>
<path d="M1209 615 c-3 -5 -7 -48 -8 -95 -2 -63 0 -82 9 -74 7 7 10 42 8 95
-2 46 -6 80 -9 74z"/>
<path d="M1794 475 c0 -82 2 -115 3 -72 2 43 2 110 0 150 -1 40 -3 5 -3 -78z"/>
<path d="M698 593 c-10 -2 -18 -13 -18 -24 0 -21 1 -22 26 -12 16 6 16 7 -2
14 -17 7 -17 8 -1 8 9 1 17 6 17 11 0 6 -1 9 -2 9 -2 -1 -11 -3 -20 -6z"/>
<path d="M680 484 c0 -14 44 -24 62 -13 7 4 18 3 25 -3 7 -6 13 -7 13 -3 0 4
6 3 13 -3 8 -7 18 -6 31 4 11 7 18 16 15 18 -2 2 -39 6 -81 8 -57 3 -78 1 -78
-8z"/>
<path d="M850 486 c0 -8 11 -16 25 -18 14 -3 25 -1 25 6 0 6 4 5 9 -2 9 -14
13 -15 47 -2 13 5 26 4 32 -2 8 -8 16 -7 28 3 10 8 15 10 12 4 -3 -6 5 -10 18
-10 13 0 24 6 24 13 0 15 -19 17 -100 12 -19 -1 -37 -1 -40 0 -3 0 -22 3 -42
5 -27 3 -38 0 -38 -9z"/>
<path d="M1333 492 c-33 -5 -29 -30 3 -26 14 1 28 5 32 8 10 11 -12 22 -35 18z"/>
<path d="M1393 490 c2 -8 10 -14 16 -12 6 1 11 -1 11 -5 0 -14 73 -8 78 6 3 8
-3 12 -14 11 -11 -1 -21 -1 -24 0 -19 7 -50 5 -50 -4 0 -6 -5 -4 -11 4 -9 13
-10 13 -6 0z"/>
<path d="M1525 490 c-4 -6 -5 -13 -4 -15 11 -9 75 -12 91 -4 14 7 20 6 24 -6
9 -22 24 -19 24 5 0 14 -7 20 -22 21 -13 1 -36 2 -51 3 -16 1 -31 -2 -34 -7
-3 -5 -9 -4 -13 3 -6 9 -9 9 -15 0z"/>
<path d="M689 448 c0 -2 -2 -11 -4 -20 -3 -18 -2 -18 72 -18 15 0 30 6 35 13
11 17 -10 21 -29 5 -14 -11 -16 -11 -8 1 7 11 1 13 -29 8 -22 -3 -34 -2 -31 4
4 5 4 9 1 9 -3 0 -6 -1 -7 -2z"/>
<path d="M1265 440 c-3 -5 -3 -14 0 -20 9 -15 27 -12 20 3 -4 6 0 4 8 -6 9
-10 18 -14 21 -9 3 6 15 8 26 5 13 -4 20 0 20 9 0 8 -10 14 -22 14 -13 0 -33
4 -45 8 -12 4 -24 2 -28 -4z"/>
<path d="M805 431 c-11 -10 -4 -21 15 -21 11 0 20 5 20 12 0 9 3 9 12 0 17
-17 38 -15 38 3 0 12 -10 15 -40 13 -22 -1 -43 -4 -45 -7z"/>
<path d="M1370 423 c0 -19 76 -17 84 2 4 10 -1 15 -15 15 -11 0 -18 -4 -15 -8
3 -5 -1 -9 -9 -9 -8 0 -12 4 -9 8 2 4 -5 7 -16 6 -11 -1 -20 -7 -20 -14z"/>
<path d="M1200 387 c0 -26 4 -47 9 -47 8 0 3 79 -5 89 -2 2 -4 -17 -4 -42z"/>
<path d="M2062 408 c-34 -34 6 -90 48 -68 26 14 26 56 1 70 -25 13 -34 13 -49
-2z m48 -13 c17 -20 5 -45 -20 -45 -11 0 -23 7 -26 15 -6 15 11 45 26 45 4 0
13 -7 20 -15z"/>
<path d="M680 372 c0 -15 11 -17 93 -16 52 0 98 4 104 7 6 4 13 2 15 -5 3 -8
7 -6 11 5 7 19 8 19 -107 18 -43 -1 -82 -4 -87 -7 -5 -3 -9 0 -9 5 0 6 -4 11
-10 11 -5 0 -10 -8 -10 -18z"/>
<path d="M41 112 c-2 -65 -83 -62 1459 -62 1534 0 1460 -3 1460 59 0 17 -5 31
-10 31 -6 0 -8 -10 -4 -24 3 -13 1 -27 -5 -30 -15 -10 -2873 -8 -2882 2 -4 4
-9 18 -12 32 -3 21 -5 19 -6 -8z"/>
<path d="M90 132 c0 -5 6 -16 14 -27 13 -18 14 -18 39 1 36 26 33 34 -13 34
-22 0 -40 -4 -40 -8z"/>
<path d="M2765 132 c-13 -3 3 -10 44 -18 64 -13 109 -5 96 17 -6 9 -105 11
-140 1z"/>
</g>
</svg>
