<?xml version="1.0" standalone="no"?>
<!DOCTYPE svg PUBLIC "-//W3C//DTD SVG 20010904//EN"
 "http://www.w3.org/TR/2001/REC-SVG-20010904/DTD/svg10.dtd">
<svg version="1.0" xmlns="http://www.w3.org/2000/svg"
 width="300.000000pt" height="167.000000pt" viewBox="0 0 300.000000 167.000000"
 preserveAspectRatio="xMidYMid meet">
<metadata>
Created by potrace 1.10, written by Peter Selinger 2001-2011
</metadata>
<g transform="translate(-5.000000,167.000000) scale(0.100000,-0.100000)"
fill="#000000" stroke="none">
<path d="M1212 1555 c-54 -24 -61 -54 -65 -301 -2 -121 -1 -407 2 -636 l6
-418 28 -27 27 -28 285 -3 284 -3 33 30 33 29 3 636 c3 709 4 694 -62 721 -50
21 -525 21 -574 0z m158 -35 c0 -19 -7 -20 -87 -20 l-88 1 24 19 c18 15 38 20
87 20 57 0 64 -2 64 -20z m410 0 l25 -20 -87 0 c-81 0 -88 2 -88 20 0 18 7 20
63 20 46 0 68 -5 87 -20z m-488 -50 c35 0 68 4 74 10 5 5 24 6 44 1 19 -4 52
-6 73 -5 28 3 36 0 31 -9 -6 -9 -4 -9 7 -1 18 15 108 24 115 13 3 -5 18 -9 34
-9 22 0 33 -7 44 -29 18 -34 41 -45 67 -31 25 14 24 15 -13 15 -26 0 -33 4
-33 19 0 29 31 44 51 25 20 -21 33 -111 13 -91 -18 17 -365 15 -434 -3 -46
-11 -30 -13 175 -15 124 -1 232 -3 240 -4 20 -1 22 -112 2 -128 -9 -8 -10 -13
-2 -18 10 -6 -109 -21 -162 -21 -10 0 -18 -7 -18 -15 0 -8 -5 -12 -10 -9 -6 4
-8 11 -5 16 4 5 1 9 -4 9 -20 0 -11 -35 13 -52 23 -17 24 -17 19 1 -3 10 0 22
6 25 6 4 11 3 11 -1 0 -5 13 -10 30 -11 21 -2 28 1 24 12 -5 14 33 26 86 26
26 0 27 -3 28 -47 1 -27 4 -88 8 -137 l7 -88 -22 11 c-37 20 -112 20 -168 -1
-32 -12 -71 -18 -100 -16 -45 3 -48 5 -48 30 0 15 -4 31 -10 37 -12 12 -245
19 -262 8 -7 -5 -13 -5 -13 0 -1 53 -1 438 -1 466 1 34 3 37 20 27 11 -5 48
-10 83 -10z m-42 -510 c0 -13 -7 -20 -20 -20 -13 0 -20 7 -20 20 0 13 7 20 20
20 13 0 20 -7 20 -20z m120 0 c0 -5 -25 -10 -55 -10 -30 0 -55 5 -55 10 0 6
25 10 55 10 30 0 55 -4 55 -10z m100 0 c0 -5 -20 -10 -45 -10 -25 0 -45 5 -45
10 0 6 20 10 45 10 25 0 45 -4 45 -10z m-167 -55 c23 1 47 4 53 7 18 12 31 -6
38 -54 5 -31 4 -48 -3 -48 -7 0 -8 -17 -4 -46 4 -34 2 -48 -8 -55 -21 -13 -25
-11 -25 11 0 11 3 20 7 20 4 0 9 9 12 20 3 11 1 18 -3 15 -5 -3 -11 -1 -14 4
-10 15 -99 10 -119 -7 -16 -14 -16 -17 -1 -33 9 -10 21 -16 28 -13 7 3 18 -8
25 -23 8 -17 15 -23 20 -15 3 6 24 10 46 9 35 -3 40 -6 43 -29 l3 -26 -85 0
c-48 1 -86 5 -86 10 0 5 -4 7 -8 4 -5 -3 -10 53 -10 124 -1 72 2 130 6 130 4
0 14 -6 21 -12 7 -7 12 -8 11 -3 -4 17 1 31 6 20 2 -5 23 -10 47 -10z m344 -8
c-4 6 -3 14 3 18 5 3 10 3 10 -2 0 -9 86 -10 95 -1 3 3 14 4 23 1 15 -3 17
-22 20 -137 l4 -134 -86 0 c-47 1 -86 5 -86 10 0 5 -3 7 -8 4 -4 -2 -8 22 -9
55 -1 32 2 59 7 59 6 0 6 10 0 26 -6 14 -10 48 -10 76 l0 51 22 -19 c12 -10
18 -14 15 -7z m-157 -14 c18 -2 88 -27 94 -34 2 -2 6 -28 9 -57 l5 -54 -52 2
c-78 4 -130 1 -123 -6 3 -4 42 -6 86 -5 46 1 82 -3 86 -9 4 -7 -26 -10 -90
-10 l-96 0 2 63 c2 58 4 62 28 67 22 4 26 10 23 35 -2 17 1 26 5 20 4 -5 15
-11 23 -12z m-163 -140 c16 -33 10 -39 -22 -25 -15 7 -25 20 -25 32 0 30 33
25 47 -7z m269 -59 c-3 -9 -6 -20 -6 -25 0 -5 -39 -9 -87 -9 -87 0 -88 0 -89
25 l-2 25 95 0 c83 0 94 -2 89 -16z m-380 -60 c-3 -8 3 -18 12 -24 12 -8 14
-13 5 -16 -23 -10 -15 -34 10 -30 17 3 22 9 20 32 -1 16 0 23 3 16 3 -6 10 -9
15 -6 6 3 21 -1 34 -10 13 -9 31 -16 40 -16 9 0 14 -4 11 -9 -4 -5 2 -7 11 -5
16 4 18 -3 18 -65 l0 -71 -85 -2 -85 -2 84 -5 c84 -6 99 -13 82 -40 -11 -17
-181 -23 -180 -6 6 53 -3 215 -11 210 -6 -4 -10 12 -10 41 0 41 2 45 15 34 9
-7 14 -19 11 -26z m223 -16 c8 -7 11 -8 8 -3 -4 7 20 11 69 12 42 0 74 -4 74
-10 0 -5 -9 -7 -20 -4 -11 3 -18 1 -14 -4 3 -5 11 -9 19 -9 17 0 32 -63 17
-68 -8 -2 -9 -20 -5 -49 6 -42 -3 -62 -28 -63 -12 0 -4 35 9 46 22 17 -14 39
-67 40 -57 2 -89 -20 -67 -45 7 -9 12 -24 11 -34 -2 -13 1 -17 11 -13 9 4 14
-2 15 -17 1 -17 3 -15 9 8 4 17 5 42 2 58 -4 22 -1 27 17 27 16 0 21 -6 21
-26 0 -14 4 -23 10 -19 6 3 10 1 10 -6 0 -6 -8 -9 -20 -6 -24 6 -37 -10 -21
-26 8 -8 11 -8 11 1 0 15 36 16 46 1 4 -8 9 -7 15 2 10 17 16 11 25 -25 6 -25
4 -28 -10 -23 -9 4 -16 2 -16 -4 0 -6 -4 -8 -9 -4 -15 9 -105 10 -118 2 -9 -5
-13 -2 -13 8 0 9 -3 14 -7 12 -5 -3 -9 45 -9 106 -1 75 2 114 10 119 8 6 8 8
-1 8 -7 0 -13 5 -13 10 0 14 13 13 29 -2z m242 -12 c6 3 20 -1 32 -9 12 -8 36
-17 52 -21 l31 -7 1 -98 c0 -55 4 -104 8 -111 10 -15 -4 -142 -17 -158 -6 -6
-25 -12 -42 -12 -31 0 -32 2 -28 32 3 18 1 30 -3 25 -5 -4 -9 -17 -10 -30 l-2
-22 -244 0 -244 0 -3 42 -3 43 297 0 c238 0 295 3 286 12 -17 17 -61 20 -328
22 -215 1 -233 0 -253 -18 l-21 -19 0 48 c0 46 1 47 18 32 19 -17 40 -19 202
-20 93 0 128 0 210 2 36 1 66 -2 68 -7 3 -11 102 7 102 19 0 11 -13 13 -131
17 l-46 2 -1 96 c0 69 3 94 11 91 25 -9 47 13 42 41 -3 15 -2 21 1 14 3 -6 10
-9 15 -6z"/>
<path d="M1408 1464 c-15 -14 -8 -43 11 -54 27 -14 154 -13 169 2 7 7 12 23
11 38 l-1 25 -11 -27 c-11 -27 -13 -28 -88 -28 -76 0 -78 1 -81 26 -2 14 -6
22 -10 18z"/>
<path d="M1452 1333 c-6 -3 -10 -9 -6 -14 8 -13 -23 -11 -46 4 -17 10 -22 9
-30 -3 -6 -10 -10 -11 -10 -2 0 7 -14 12 -35 12 -24 0 -35 -5 -35 -15 0 -17
-2 -17 103 -16 42 0 77 -3 77 -8 0 -10 -107 -18 -187 -13 -51 3 -76 21 -30 23
21 0 21 1 2 9 -26 10 -39 -2 -30 -29 7 -23 11 -23 163 -21 52 1 82 -3 82 -9 0
-7 -42 -11 -121 -11 -71 0 -118 -4 -114 -9 3 -5 1 -12 -5 -16 -5 -3 -10 -14
-10 -23 0 -15 14 -17 135 -14 93 2 135 0 135 -8 0 -6 9 -3 20 8 28 26 22 96
-9 100 -11 2 -21 8 -21 14 0 6 11 8 28 4 20 -5 23 -4 12 4 -8 5 -23 10 -32 10
-9 0 -18 6 -20 13 -2 8 -9 12 -16 10z m68 -132 c0 -6 -61 -10 -145 -9 -80 0
-145 4 -145 9 0 5 65 9 145 9 83 0 145 -4 145 -9z"/>
<path d="M1579 1278 c0 -7 -2 -27 -3 -44 -3 -26 0 -31 14 -27 11 3 16 13 15
26 -1 12 -3 30 -4 40 -1 19 -21 24 -22 5z"/>
<path d="M1670 1282 c0 -2 7 -10 15 -18 17 -18 20 -34 5 -34 -5 0 -10 3 -10 8
0 4 -11 12 -25 19 -14 6 -25 10 -25 8 0 -2 -3 -10 -6 -19 -5 -12 0 -16 21 -16
14 0 35 -4 45 -10 16 -9 18 -7 15 18 -3 26 0 30 33 39 l37 11 -52 -2 c-29 0
-53 -2 -53 -4z"/>
<path d="M1295 1163 c-27 -2 -54 -9 -60 -15 -13 -13 95 0 110 13 5 5 7 8 5 7
-3 -1 -27 -3 -55 -5z"/>
<path d="M1509 1117 c8 -11 5 -17 -13 -27 -14 -7 -34 -10 -45 -7 -12 3 -22 -1
-25 -9 -3 -8 -16 -19 -28 -24 -13 -5 -17 -9 -10 -9 7 -1 24 6 38 15 17 12 38
15 69 12 43 -5 54 0 38 16 -5 4 -9 12 -9 17 -1 5 -2 14 -3 19 0 6 -6 10 -12
10 -8 0 -8 -4 0 -13z"/>
<path d="M1655 1111 c-32 -19 -50 -66 -21 -55 9 3 16 10 16 14 0 4 9 10 20 13
13 3 18 10 14 21 -8 20 4 21 26 1 20 -18 50 -10 50 13 0 13 -3 12 -16 -4 -8
-10 -12 -13 -8 -5 5 11 3 13 -9 8 -9 -3 -19 -2 -22 3 -8 13 -14 12 -50 -9z"/>
<path d="M1502 1030 c-70 -3 -102 -7 -72 -8 253 -11 323 -11 338 -3 22 13
-101 18 -266 11z"/>
<path d="M1306 833 c-3 -10 -9 -24 -12 -30 -3 -7 -1 -13 5 -13 6 0 11 7 11 16
0 11 5 14 16 10 11 -4 14 -1 12 11 -4 23 -24 27 -32 6z"/>
<path d="M1706 833 c-3 -10 -9 -24 -12 -30 -3 -7 -1 -13 5 -13 6 0 11 7 11 16
0 11 5 14 16 10 11 -4 14 -1 12 11 -4 23 -24 27 -32 6z"/>
<path d="M1635 770 c-14 -16 -14 -18 0 -30 9 -8 14 -22 11 -33 -3 -13 0 -17 9
-13 8 3 16 -3 18 -12 3 -12 5 -11 6 6 0 12 -3 22 -9 22 -5 0 -10 5 -10 10 0
20 17 10 29 -17 9 -20 14 -24 21 -14 5 9 17 11 32 8 13 -3 30 -2 38 4 12 8 11
9 -5 5 -16 -5 -21 -1 -21 14 0 11 3 20 7 20 4 0 9 9 12 20 4 16 2 18 -13 10
-26 -14 -34 -12 -21 4 19 22 -83 19 -104 -4z m85 -19 c0 -11 6 -21 13 -24 6
-2 9 -8 5 -12 -5 -5 -19 -3 -33 3 -31 14 -35 52 -5 52 13 0 20 -7 20 -19z"/>
<path d="M1480 838 c0 -8 5 -19 12 -26 9 -9 9 -12 1 -12 -7 0 -15 5 -18 11 -5
7 -14 4 -26 -7 -21 -19 -25 -34 -8 -34 5 0 7 6 4 13 -4 6 0 4 8 -5 14 -18 97
-26 97 -10 0 4 -16 25 -35 46 -19 21 -35 32 -35 24z m20 -46 c7 2 15 -3 17 -9
3 -7 -1 -13 -7 -13 -18 0 -50 20 -50 32 0 7 4 7 14 -1 8 -6 19 -10 26 -9z"/>
<path d="M1280 533 c0 -9 -3 -13 -7 -10 -3 4 -12 2 -19 -4 -10 -8 -11 -15 -1
-30 9 -14 23 -19 54 -19 49 0 54 10 18 38 -14 11 -25 25 -25 31 0 6 -4 11 -10
11 -5 0 -10 -7 -10 -17z m6 -25 c-4 6 -3 12 2 12 14 0 36 -29 28 -37 -9 -9
-56 14 -56 28 0 8 6 7 17 -2 11 -10 14 -10 9 -1z"/>
<path d="M1223 444 c7 -8 146 -8 154 0 4 3 -31 6 -77 6 -46 0 -81 -3 -77 -6z"/>
<path d="M1250 390 c0 -4 25 -6 55 -6 30 1 55 4 55 7 0 4 -25 7 -55 7 -30 -1
-55 -4 -55 -8z"/>
<path d="M1503 530 c-6 -16 -7 -30 -2 -30 5 0 9 7 9 16 0 11 5 14 16 10 11 -4
14 -1 12 11 -5 28 -23 25 -35 -7z"/>
<path d="M1680 533 c0 -9 -3 -13 -7 -10 -3 4 -12 2 -19 -4 -10 -8 -11 -15 -1
-30 9 -14 23 -19 54 -19 49 0 54 10 18 38 -14 11 -25 25 -25 31 0 6 -4 11 -10
11 -5 0 -10 -7 -10 -17z m34 -33 c5 -5 7 -13 3 -16 -9 -9 -57 13 -57 25 0 12
40 5 54 -9z"/>
<path d="M1623 444 c7 -8 146 -8 154 0 4 3 -31 6 -77 6 -46 0 -81 -3 -77 -6z"/>
<path d="M1668 413 c23 -2 59 -2 80 0 20 2 1 4 -43 4 -44 0 -61 -2 -37 -4z"/>
<path d="M1650 392 c0 -5 25 -8 55 -8 30 1 55 4 55 9 0 4 -25 7 -55 7 -30 0
-55 -4 -55 -8z"/>
<path d="M1530 221 c0 -5 16 -9 35 -9 19 0 32 4 29 9 -3 5 -18 9 -35 9 -16 0
-29 -4 -29 -9z"/>
</g>
</svg>
